<svg width="17" height="17" viewBox="0 0 17 17" fill="none" xmlns="http://www.w3.org/2000/svg">
<path d="M13.6003 13H5.03646L2.94417 1.49267C2.91903 1.35442 2.84617 1.22938 2.73829 1.13935C2.63041 1.04932 2.49435 1 2.35383 1H1" stroke="#0E9EEB" stroke-width="1.5" stroke-linecap="round" stroke-linejoin="round"/>
<path d="M5.80009 15.9999C6.62853 15.9999 7.30012 15.3283 7.30012 14.4999C7.30012 13.6715 6.62853 12.9999 5.80009 12.9999C4.97164 12.9999 4.30005 13.6715 4.30005 14.4999C4.30005 15.3283 4.97164 15.9999 5.80009 15.9999Z" stroke="#0E9EEB" stroke-width="1.5" stroke-linecap="round" stroke-linejoin="round"/>
<path d="M13.6006 15.9999C14.4291 15.9999 15.1007 15.3283 15.1007 14.4999C15.1007 13.6715 14.4291 12.9999 13.6006 12.9999C12.7722 12.9999 12.1006 13.6715 12.1006 14.4999C12.1006 15.3283 12.7722 15.9999 13.6006 15.9999Z" stroke="#0E9EEB" stroke-width="1.5" stroke-linecap="round" stroke-linejoin="round"/>
<path d="M4.49059 10.0001H13.9075C14.1885 10.0001 14.4607 9.90151 14.6764 9.72144C14.8922 9.54137 15.0379 9.29129 15.0882 9.0148L16 4.00012H3.39966" stroke="#0E9EEB" stroke-width="1.5" stroke-linecap="round" stroke-linejoin="round"/>
</svg>
