<svg width="22" height="22" viewBox="0 0 22 22" fill="none" xmlns="http://www.w3.org/2000/svg">
<path d="M15.8125 15.8125H6L3.60264 2.62702C3.57384 2.46861 3.49035 2.32533 3.36674 2.22217C3.24313 2.11901 3.08723 2.0625 2.92623 2.0625H1.375" stroke="white" stroke-width="1.5" stroke-linecap="round" stroke-linejoin="round"/>
<path d="M6.875 19.25C7.82424 19.25 8.59375 18.4805 8.59375 17.5312C8.59375 16.582 7.82424 15.8125 6.875 15.8125C5.92576 15.8125 5.15625 16.582 5.15625 17.5312C5.15625 18.4805 5.92576 19.25 6.875 19.25Z" stroke="white" stroke-width="1.5" stroke-linecap="round" stroke-linejoin="round"/>
<path d="M15.8125 19.25C16.7617 19.25 17.5312 18.4805 17.5312 17.5312C17.5312 16.582 16.7617 15.8125 15.8125 15.8125C14.8633 15.8125 14.0938 16.582 14.0938 17.5312C14.0938 18.4805 14.8633 19.25 15.8125 19.25Z" stroke="white" stroke-width="1.5" stroke-linecap="round" stroke-linejoin="round"/>
<path d="M5.375 12.375H16.165C16.487 12.375 16.7988 12.262 17.046 12.0557C17.2932 11.8493 17.4602 11.5628 17.5178 11.246L18.5625 5.5H4.125" stroke="white" stroke-width="1.5" stroke-linecap="round" stroke-linejoin="round"/>
</svg>
