<svg width="22" height="28" viewBox="0 0 22 28" fill="none" xmlns="http://www.w3.org/2000/svg">
<path d="M12.7002 1H6.72727C4.02741 1 2.67748 1 1.83874 1.83874C1 2.67748 1 4.02741 1 6.72727V21.0455C1 23.7453 1 25.0952 1.83874 25.934C2.67748 26.7727 4.02741 26.7727 6.72727 26.7727H15.3182C18.018 26.7727 19.368 26.7727 20.2067 25.934C21.0455 25.0952 21.0455 23.7453 21.0455 21.0455V9.34525C21.0455 8.75999 21.0455 8.46736 20.9365 8.20424C20.8275 7.94111 20.6206 7.73419 20.2067 7.32035L14.7251 1.83874C14.3113 1.4249 14.1043 1.21798 13.8412 1.10899C13.5781 1 13.2855 1 12.7002 1Z" stroke="#0A212F" stroke-width="1.5"/>
<path d="M12.4531 1V6.72727C12.4531 8.0772 12.4531 8.75217 12.8725 9.17154C13.2919 9.59091 13.9668 9.59091 15.3168 9.59091H21.044" stroke="#0A212F" stroke-width="1.5"/>
<path d="M7.04939 19.077L7.69926 19.445L7.04938 19.077C6.93037 19.2872 6.87331 19.5174 6.82025 19.7314C6.81592 19.7489 6.81162 19.7663 6.80731 19.7835L6.56044 20.771C6.55783 20.7814 6.55515 20.7921 6.55243 20.8029C6.5146 20.9537 6.46823 21.1386 6.45258 21.2985C6.43491 21.4792 6.43333 21.8357 6.72242 22.1248C7.01152 22.4139 7.36802 22.4123 7.54874 22.3947C7.70868 22.379 7.89353 22.3326 8.04433 22.2948C8.05517 22.2921 8.06583 22.2894 8.07629 22.2868L9.06374 22.0399C9.08098 22.0356 9.09835 22.0313 9.11582 22.027C9.32988 21.9739 9.56004 21.9169 9.77024 21.7979L9.40072 21.1452L9.77025 21.7979C9.98045 21.6789 10.1478 21.5108 10.3034 21.3546C10.3161 21.3418 10.3288 21.3292 10.3413 21.3166L14.3246 17.3333L14.3246 17.3333C14.3257 17.3322 14.3268 17.3311 14.3279 17.33C14.3376 17.3204 14.3472 17.3107 14.3569 17.301C14.4793 17.179 14.6066 17.0521 14.7005 16.9145C15.1066 16.3195 15.1066 15.5364 14.7005 14.9414C14.6066 14.8038 14.4793 14.6769 14.3569 14.5549C14.3461 14.5441 14.3353 14.5334 14.3246 14.5227L14.3246 14.5226C14.3139 14.5119 14.3031 14.5011 14.2923 14.4903C14.1703 14.368 14.0434 14.2407 13.9058 14.1468C13.3108 13.7407 12.5277 13.7407 11.9327 14.1468C11.7951 14.2407 11.6682 14.368 11.5462 14.4903C11.5354 14.5011 11.5247 14.5119 11.5139 14.5226L7.53066 18.5059C7.51809 18.5185 7.50542 18.5311 7.49267 18.5438C7.33641 18.6995 7.1684 18.8668 7.04939 19.077Z" stroke="#0A212F" stroke-width="1.5"/>
<path d="M11.4609 15.0531L13.2109 13.8865L14.9609 15.6365L13.7943 17.3865L11.4609 15.0531Z" fill="#0A212F"/>
</svg>
