<svg width="22" height="28" viewBox="0 0 22 28" fill="none" xmlns="http://www.w3.org/2000/svg">
<path d="M12.7002 1H6.72727C4.02741 1 2.67748 1 1.83874 1.83874C1 2.67748 1 4.02741 1 6.72727V21.0455C1 23.7453 1 25.0952 1.83874 25.934C2.67748 26.7727 4.02741 26.7727 6.72727 26.7727H15.3182C18.018 26.7727 19.368 26.7727 20.2067 25.934C21.0455 25.0952 21.0455 23.7453 21.0455 21.0455V9.34525C21.0455 8.75999 21.0455 8.46736 20.9365 8.20424C20.8275 7.94111 20.6206 7.73419 20.2067 7.32035L14.7251 1.83874C14.3113 1.4249 14.1043 1.21798 13.8412 1.10899C13.5781 1 13.2855 1 12.7002 1Z" stroke="#0A212F" stroke-width="1.5"/>
<path d="M9.12157 14.9127L8.82613 15.6021V15.6021L9.12157 14.9127ZM13.6785 16.8657L13.9739 16.1764L13.6785 16.8657ZM13.6785 19.4978L13.9739 20.1872L13.6785 19.4978ZM9.12157 21.4508L8.82613 20.7614H8.82613L9.12157 21.4508ZM8.82613 15.6021L13.3831 17.5551L13.9739 16.1764L9.41701 14.2234L8.82613 15.6021ZM13.3831 18.8085L8.82613 20.7614L9.41701 22.1402L13.9739 20.1872L13.3831 18.8085ZM5.97656 16.492V19.8715H7.47656V16.492H5.97656ZM8.82613 20.7614C8.18726 21.0352 7.47656 20.5666 7.47656 19.8715H5.97656C5.97656 21.6435 7.78834 22.8382 9.41701 22.1402L8.82613 20.7614ZM13.3831 17.5551C13.9341 17.7912 13.9341 18.5723 13.3831 18.8085L13.9739 20.1872C15.7371 19.4315 15.7371 16.932 13.9739 16.1764L13.3831 17.5551ZM9.41701 14.2234C7.78833 13.5254 5.97656 14.7201 5.97656 16.492H7.47656C7.47656 15.7969 8.18726 15.3283 8.82613 15.6021L9.41701 14.2234Z" fill="#0A212F"/>
<path d="M12.4531 1V6.72727C12.4531 8.0772 12.4531 8.75217 12.8725 9.17154C13.2919 9.59091 13.9668 9.59091 15.3168 9.59091H21.044" stroke="#0A212F" stroke-width="1.5"/>
</svg>
