<svg width="22" height="28" viewBox="0 0 22 28" fill="none" xmlns="http://www.w3.org/2000/svg">
<path d="M12.544 1H6.65079C3.98698 1 2.65508 1 1.82754 1.82754C1 2.65508 1 3.98698 1 6.65079V20.7778C1 23.4416 1 24.7735 1.82754 25.601C2.65508 26.4286 3.98698 26.4286 6.65079 26.4286H15.127C17.7908 26.4286 19.1227 26.4286 19.9502 25.601C20.7778 24.7735 20.7778 23.4416 20.7778 20.7778V9.23381C20.7778 8.65637 20.7778 8.36765 20.6702 8.10803C20.5627 7.84842 20.3586 7.64426 19.9502 7.23595L14.5418 1.82754C14.1335 1.41923 13.9294 1.21507 13.6697 1.10754C13.4101 1 13.1214 1 12.544 1Z" stroke="#0A212F" stroke-width="1.5"/>
<path d="M12.3008 1V6.65079C12.3008 7.9827 12.3008 8.64865 12.7146 9.06242C13.1283 9.47619 13.7943 9.47619 15.1262 9.47619H20.777" stroke="#0A212F" stroke-width="1.5"/>
<path d="M8.0625 19.365L13.7133 13.7142" stroke="#0A212F" stroke-width="1.5" stroke-linecap="round"/>
<path d="M13.7148 17.9524L13.7148 13.7143" stroke="#0A212F" stroke-width="1.5" stroke-linecap="round"/>
<path d="M9.47656 13.7144L13.7147 13.7144" stroke="#0A212F" stroke-width="1.5" stroke-linecap="round"/>
</svg>
