<svg width="20" height="20" viewBox="0 0 20 20" fill="none" xmlns="http://www.w3.org/2000/svg">
<path d="M9.99996 18.3333C14.6023 18.3333 18.3333 14.6024 18.3333 10C18.3333 5.39763 14.6023 1.66667 9.99996 1.66667C5.39759 1.66667 1.66663 5.39763 1.66663 10C1.66663 14.6024 5.39759 18.3333 9.99996 18.3333Z" stroke="#BFC5CB" stroke-width="1.5" stroke-linecap="round" stroke-linejoin="round"/>
<path d="M7.57507 7.5C7.77099 6.94306 8.1577 6.47342 8.6667 6.17428C9.1757 5.87513 9.77415 5.76578 10.3561 5.86559C10.938 5.96541 11.4658 6.26794 11.846 6.71961C12.2262 7.17128 12.4343 7.74294 12.4334 8.33334C12.4334 10 9.93341 10.8333 9.93341 10.8333" stroke="#BFC5CB" stroke-width="1.5" stroke-linecap="round" stroke-linejoin="round"/>
<path d="M10 13.3333V13.75" stroke="#BFC5CB" stroke-width="1.5" stroke-linecap="round" stroke-linejoin="round"/>
</svg>
