<svg width="51" height="51" viewBox="0 0 51 51" fill="none" xmlns="http://www.w3.org/2000/svg">
<path d="M10.0981 36.84C11.8487 33.3171 12.7569 29.4357 12.7512 25.5018C12.7494 23.5902 13.1783 21.7026 14.006 19.9795C14.8337 18.2563 16.039 16.7418 17.5324 15.5483" stroke="#0A212F" stroke-width="2" stroke-linecap="round" stroke-linejoin="round"/>
<path d="M25.5013 25.5018C25.5113 31.9821 23.8673 38.3578 20.7249 44.0252" stroke="#0A212F" stroke-width="2" stroke-linecap="round" stroke-linejoin="round"/>
<path d="M19.1257 25.5018C19.1257 23.811 19.7974 22.1895 20.9929 20.994C22.1885 19.7985 23.81 19.1268 25.5007 19.1268C27.1915 19.1268 28.813 19.7985 30.0085 20.994C31.2041 22.1895 31.8757 23.811 31.8757 25.5018C31.885 32.0728 30.4375 38.5641 27.6373 44.5085" stroke="#0A212F" stroke-width="2" stroke-linecap="round" stroke-linejoin="round"/>
<path d="M43.5424 36.6579C44.2652 32.9832 44.6282 29.2468 44.6264 25.5017C44.6264 20.4294 42.6114 15.5649 39.0248 11.9783C35.4381 8.39164 30.5736 6.37669 25.5014 6.37669C20.4291 6.37669 15.5646 8.39164 11.9779 11.9783C8.3913 15.5649 6.37635 20.4294 6.37635 25.5017C6.37873 27.6731 6.0107 29.8291 5.28809 31.8767" stroke="#0A212F" stroke-width="2" stroke-linecap="round" stroke-linejoin="round"/>
<path d="M18.4884 31.8767C17.808 35.2279 16.5893 38.4468 14.8796 41.4083" stroke="#0A212F" stroke-width="2" stroke-linecap="round" stroke-linejoin="round"/>
<path d="M23.907 12.8504C25.7015 12.626 27.5233 12.7856 29.2515 13.3186C30.9797 13.8517 32.5748 14.746 33.9311 15.9423C35.2875 17.1386 36.374 18.6095 37.1187 20.2576C37.8634 21.9057 38.2493 23.6933 38.2507 25.5018C38.2512 27.6329 38.1195 29.7619 37.8562 31.8767" stroke="#0A212F" stroke-width="2" stroke-linecap="round" stroke-linejoin="round"/>
<path d="M36.645 38.2517C36.3415 39.4308 35.9974 40.5929 35.6128 41.738" stroke="#0A212F" stroke-width="2" stroke-linecap="round" stroke-linejoin="round"/>
</svg>
