<svg width="51" height="51" viewBox="0 0 51 51" fill="none" xmlns="http://www.w3.org/2000/svg">
<path d="M36.8543 7.38456L28.4947 15.7441L29.6216 21.3789L35.2564 22.5059L43.616 14.1463L43.6168 14.1459C44.6515 16.5884 44.899 19.2927 44.3247 21.8824C43.7505 24.4721 42.3832 26.8184 40.413 28.5946C38.4429 30.3708 35.968 31.4886 33.3328 31.7923C30.6977 32.0961 28.0334 31.5707 25.7108 30.2893L25.711 30.2889L14.5376 43.2246C13.6408 44.1204 12.4249 44.6234 11.1573 44.6231C9.88974 44.6227 8.67416 44.119 7.77784 43.2227C6.88151 42.3264 6.3778 41.1108 6.37744 39.8432C6.37708 38.5756 6.8801 37.3597 7.77591 36.4629L20.7115 25.2896L20.7112 25.2898C19.4298 22.9672 18.9044 20.3029 19.2082 17.6677C19.5119 15.0325 20.6297 12.5576 22.4059 10.5875C24.1821 8.61737 26.5284 7.25002 29.1181 6.67579C31.7078 6.10156 34.4121 6.34903 36.8546 7.38374L36.8543 7.38456Z" stroke="#0A212F" stroke-width="2" stroke-linecap="round" stroke-linejoin="round"/>
</svg>
