<svg width="51" height="51" viewBox="0 0 51 51" fill="none" xmlns="http://www.w3.org/2000/svg">
<path d="M29.817 39.0237L26.8666 43.9409C26.725 44.1769 26.5247 44.3722 26.2852 44.5078C26.0457 44.6434 25.7752 44.7147 25.5 44.7147C25.2248 44.7147 24.9543 44.6434 24.7148 44.5078C24.4753 44.3722 24.275 44.1769 24.1334 43.9409L21.183 39.0237C21.0414 38.7877 20.8411 38.5924 20.6016 38.4568C20.3621 38.3212 20.0916 38.2499 19.8164 38.2499H7.96875C7.54606 38.2499 7.14068 38.082 6.8418 37.7831C6.54291 37.4842 6.375 37.0789 6.375 36.6562V11.1563C6.375 10.7336 6.54291 10.3282 6.8418 10.0293C7.14068 9.73041 7.54606 9.5625 7.96875 9.5625H43.0312C43.4539 9.5625 43.8593 9.73041 44.1582 10.0293C44.4571 10.3282 44.625 10.7336 44.625 11.1563V36.6563C44.625 36.8655 44.5838 37.0728 44.5037 37.2662C44.4236 37.4595 44.3062 37.6352 44.1582 37.7832C44.0102 37.9312 43.8345 38.0486 43.6411 38.1287C43.4478 38.2088 43.2405 38.25 43.0312 38.25L31.1836 38.2499C30.9084 38.2499 30.6379 38.3212 30.3984 38.4568C30.1589 38.5924 29.9586 38.7877 29.817 39.0237Z" stroke="#0A212F" stroke-width="2" stroke-linecap="round" stroke-linejoin="round"/>
<path d="M25.5 26.2969C26.8203 26.2969 27.8906 25.2266 27.8906 23.9062C27.8906 22.5859 26.8203 21.5156 25.5 21.5156C24.1797 21.5156 23.1094 22.5859 23.1094 23.9062C23.1094 25.2266 24.1797 26.2969 25.5 26.2969Z" fill="#0A212F"/>
<path d="M15.9375 26.2969C17.2578 26.2969 18.3281 25.2266 18.3281 23.9062C18.3281 22.5859 17.2578 21.5156 15.9375 21.5156C14.6172 21.5156 13.5469 22.5859 13.5469 23.9062C13.5469 25.2266 14.6172 26.2969 15.9375 26.2969Z" fill="#0A212F"/>
<path d="M35.0625 26.2969C36.3828 26.2969 37.4531 25.2266 37.4531 23.9062C37.4531 22.5859 36.3828 21.5156 35.0625 21.5156C33.7422 21.5156 32.6719 22.5859 32.6719 23.9062C32.6719 25.2266 33.7422 26.2969 35.0625 26.2969Z" fill="#0A212F"/>
</svg>
