<svg width="51" height="51" viewBox="0 0 51 51" fill="none" xmlns="http://www.w3.org/2000/svg">
<path d="M15.9375 7.96875H9.5625C8.6823 7.96875 7.96875 8.6823 7.96875 9.5625V41.4375C7.96875 42.3177 8.6823 43.0312 9.5625 43.0312H15.9375C16.8177 43.0312 17.5312 42.3177 17.5312 41.4375V9.5625C17.5312 8.6823 16.8177 7.96875 15.9375 7.96875Z" stroke="#0A212F" stroke-width="2" stroke-linecap="round" stroke-linejoin="round"/>
<path d="M7.96875 15.9375H17.5312" stroke="#0A212F" stroke-width="2" stroke-linecap="round" stroke-linejoin="round"/>
<path d="M25.5 7.96875H19.125C18.2448 7.96875 17.5312 8.6823 17.5312 9.5625V41.4375C17.5312 42.3177 18.2448 43.0312 19.125 43.0312H25.5C26.3802 43.0312 27.0938 42.3177 27.0938 41.4375V9.5625C27.0938 8.6823 26.3802 7.96875 25.5 7.96875Z" stroke="#0A212F" stroke-width="2" stroke-linecap="round" stroke-linejoin="round"/>
<path d="M17.5312 35.0625H27.0938" stroke="#0A212F" stroke-width="2" stroke-linecap="round" stroke-linejoin="round"/>
<path d="M34.7998 7.4588L28.642 9.10878C27.7918 9.33659 27.2872 10.2105 27.515 11.0607L35.7649 41.8497C35.9927 42.7 36.8666 43.2045 37.7169 42.9767L43.8747 41.3267C44.7249 41.0989 45.2294 40.225 45.0016 39.3748L36.7517 8.58576C36.5239 7.73554 35.65 7.23098 34.7998 7.4588Z" stroke="#0A212F" stroke-width="2" stroke-linecap="round" stroke-linejoin="round"/>
<path d="M34.114 35.6918L43.3507 33.2169" stroke="#0A212F" stroke-width="2" stroke-linecap="round" stroke-linejoin="round"/>
<path d="M29.1643 17.2185L38.401 14.7435" stroke="#0A212F" stroke-width="2" stroke-linecap="round" stroke-linejoin="round"/>
</svg>
