<svg width="23" height="23" viewBox="0 0 23 23" fill="none" xmlns="http://www.w3.org/2000/svg">
<path d="M13.4469 17.5989L12.1163 19.8165C12.0525 19.9229 11.9621 20.011 11.8541 20.0722C11.7461 20.1333 11.6241 20.1655 11.5 20.1655C11.3759 20.1655 11.2539 20.1333 11.1459 20.0722C11.0379 20.011 10.9475 19.9229 10.8837 19.8165L9.55312 17.5989C9.48927 17.4925 9.39893 17.4044 9.29093 17.3433C9.18292 17.2821 9.06092 17.25 8.9368 17.25H3.59375C3.40313 17.25 3.22031 17.1742 3.08552 17.0394C2.95073 16.9047 2.875 16.7218 2.875 16.5312V5.03125C2.875 4.84063 2.95073 4.65781 3.08552 4.52302C3.22031 4.38823 3.40313 4.3125 3.59375 4.3125H19.4062C19.5969 4.3125 19.7797 4.38823 19.9145 4.52302C20.0493 4.65781 20.125 4.84063 20.125 5.03125V16.5313C20.125 16.6256 20.1064 16.7191 20.0703 16.8063C20.0342 16.8935 19.9812 16.9727 19.9145 17.0395C19.8477 17.1062 19.7685 17.1592 19.6813 17.1953C19.5941 17.2314 19.5006 17.25 19.4062 17.25L14.0632 17.25C13.9391 17.25 13.8171 17.2821 13.7091 17.3433C13.6011 17.4044 13.5107 17.4925 13.4469 17.5989Z" stroke="#0A212F" stroke-width="1.5" stroke-linecap="round" stroke-linejoin="round"/>
<path d="M11.5 11.8594C12.0954 11.8594 12.5781 11.3767 12.5781 10.7812C12.5781 10.1858 12.0954 9.70312 11.5 9.70312C10.9046 9.70312 10.4219 10.1858 10.4219 10.7812C10.4219 11.3767 10.9046 11.8594 11.5 11.8594Z" fill="#0A212F"/>
<path d="M7.1875 11.8594C7.78293 11.8594 8.26562 11.3767 8.26562 10.7812C8.26562 10.1858 7.78293 9.70312 7.1875 9.70312C6.59207 9.70312 6.10938 10.1858 6.10938 10.7812C6.10938 11.3767 6.59207 11.8594 7.1875 11.8594Z" fill="#0A212F"/>
<path d="M15.8125 11.8594C16.4079 11.8594 16.8906 11.3767 16.8906 10.7812C16.8906 10.1858 16.4079 9.70312 15.8125 9.70312C15.2171 9.70312 14.7344 10.1858 14.7344 10.7812C14.7344 11.3767 15.2171 11.8594 15.8125 11.8594Z" fill="#0A212F"/>
</svg>
