<svg width="23" height="23" viewBox="0 0 23 23" fill="none" xmlns="http://www.w3.org/2000/svg">
<path d="M14.5029 10.6059L14.8383 9.93508L14.5029 10.6059ZM14.5029 12.3948L14.1675 11.7239L14.5029 12.3948ZM10.3617 8.53532L10.0263 9.20614L10.3617 8.53532ZM10.6971 7.8645L14.8383 9.93508L14.1675 11.2767L10.0263 9.20614L10.6971 7.8645ZM14.8383 13.0656L10.6971 15.1362L10.0263 13.7945L14.1675 11.7239L14.8383 13.0656ZM9.37508 9.60863V13.392H7.87508V9.60863H9.37508ZM10.6971 15.1362C9.40059 15.7844 7.87508 14.8416 7.87508 13.392H9.37508C9.37508 13.7265 9.72712 13.9441 10.0263 13.7945L10.6971 15.1362ZM14.8383 9.93508C16.1281 10.58 16.1281 12.4207 14.8383 13.0656L14.1675 11.7239C14.3517 11.6318 14.3517 11.3688 14.1675 11.2767L14.8383 9.93508ZM10.0263 9.20614C9.72712 9.05654 9.37508 9.27411 9.37508 9.60863H7.87508C7.87508 8.15904 9.40059 7.21622 10.6971 7.8645L10.0263 9.20614Z" fill="#0A212F"/>
<circle cx="11.5" cy="11.5" r="8.625" stroke="#0A212F" stroke-width="1.5"/>
</svg>
