<svg width="23" height="23" viewBox="0 0 23 23" fill="none" xmlns="http://www.w3.org/2000/svg">
<path d="M11.5 15.8125C13.8817 15.8125 15.8125 13.8817 15.8125 11.5C15.8125 9.11827 13.8817 7.1875 11.5 7.1875C9.11827 7.1875 7.1875 9.11827 7.1875 11.5C7.1875 13.8817 9.11827 15.8125 11.5 15.8125Z" stroke="#0A212F" stroke-width="1.5" stroke-linecap="round" stroke-linejoin="round"/>
<path d="M16.5008 5.8479C16.731 6.05169 16.9486 6.26928 17.1524 6.49945L19.6071 6.84998C20.0052 7.54317 20.3121 8.28484 20.5203 9.05662L19.033 11.0396C19.033 11.0396 19.0517 11.6541 19.033 11.961L20.5209 13.9446C20.3122 14.7162 20.0048 15.4577 19.6063 16.1506L17.1524 16.5011C17.1524 16.5011 16.7311 16.9488 16.501 17.1526L16.1504 19.6074C15.4572 20.0054 14.7156 20.3124 13.9438 20.5205L11.9609 19.0333C11.654 19.0519 11.3463 19.0519 11.0395 19.0333L9.05583 20.5212C8.28419 20.3125 7.54272 20.0051 6.84981 19.6065L6.49935 17.1528C6.26917 16.949 6.05158 16.7314 5.84778 16.5012L3.39304 16.1507C2.99496 15.4575 2.68804 14.7158 2.47989 13.944L3.96721 11.961C3.96721 11.961 3.9485 11.3465 3.96715 11.0397L2.47925 9.05607C2.68792 8.28443 2.99534 7.54296 3.39389 6.85005L5.84765 6.49959C6.05145 6.26941 6.26904 6.05182 6.49921 5.84803L6.84974 3.39328C7.54292 2.99521 8.2846 2.68829 9.05638 2.48014L11.0393 3.9674C11.3461 3.94875 11.6538 3.94874 11.9607 3.96739L13.9443 2.47949C14.716 2.68816 15.4574 2.99558 16.1504 3.39413L16.5008 5.8479Z" stroke="#0A212F" stroke-width="1.5" stroke-linecap="round" stroke-linejoin="round"/>
</svg>
