<svg width="23" height="23" viewBox="0 0 23 23" fill="none" xmlns="http://www.w3.org/2000/svg">
<path d="M11.5001 21.0837C16.7928 21.0837 21.0834 16.7931 21.0834 11.5003C21.0834 6.2076 16.7928 1.91699 11.5001 1.91699C6.20735 1.91699 1.91675 6.2076 1.91675 11.5003C1.91675 16.7931 6.20735 21.0837 11.5001 21.0837Z" stroke="#0A212F" stroke-width="1.5" stroke-linecap="round" stroke-linejoin="round"/>
<path d="M8.71118 8.62506C8.93649 7.98457 9.3812 7.44449 9.96655 7.10048C10.5519 6.75646 11.2401 6.63071 11.9093 6.74549C12.5785 6.86027 13.1855 7.20819 13.6227 7.72761C14.06 8.24703 14.2993 8.90443 14.2983 9.58339C14.2983 11.5001 11.4233 12.4584 11.4233 12.4584" stroke="#0A212F" stroke-width="1.5" stroke-linecap="round" stroke-linejoin="round"/>
<path d="M11.5 15.333V15.8122" stroke="#0A212F" stroke-width="1.5" stroke-linecap="round" stroke-linejoin="round"/>
</svg>
