<svg width="113" height="18" viewBox="0 0 113 18" fill="none" xmlns="http://www.w3.org/2000/svg">
<path fill-rule="evenodd" clip-rule="evenodd" d="M37.6812 5.86876H41.7532V17.1465H45.6145V5.86752H49.6655V2.47973H37.6812V5.86752M64.0732 4.36142C63.3579 3.68233 62.5153 3.15151 61.594 2.79954C60.6037 2.42109 59.5514 2.23106 58.4913 2.23925C57.3707 2.23925 56.3233 2.42767 55.3775 2.79954C54.4317 3.17142 53.5974 3.69576 52.8983 4.36142C52.1901 5.03821 51.6292 5.85394 51.2509 6.75754C50.8489 7.72945 50.6473 8.77256 50.6584 9.82428C50.6584 10.9325 50.8579 11.9638 51.2509 12.8898C51.629 13.7939 52.1899 14.61 52.8983 15.2871C53.6159 15.9629 54.4579 16.4929 55.3775 16.8478C56.3233 17.2197 57.3707 17.4081 58.4913 17.4081C59.5958 17.4081 60.6395 17.2197 61.5928 16.8478C62.5141 16.4958 63.3567 15.965 64.0719 15.2859C64.7745 14.6067 65.3313 13.7914 65.7082 12.8898C66.1011 11.9638 66.3007 10.9312 66.3007 9.82428C66.3007 8.71609 66.1024 7.68475 65.7082 6.75754C65.3311 5.85601 64.7744 5.04074 64.0719 4.36142M60.0891 13.6534C59.6119 13.8666 59.0739 13.9757 58.4901 13.9757C57.8926 13.9757 57.3472 13.8666 56.8712 13.6534C56.4066 13.4488 55.9902 13.149 55.6489 12.7733C55.3068 12.3899 55.0409 11.9448 54.8655 11.4618C54.6759 10.9369 54.5815 10.3824 54.5866 9.82428C54.5866 9.23795 54.6796 8.68634 54.8655 8.18678C55.0515 7.68723 55.3142 7.24469 55.6489 6.8753C55.9836 6.50342 56.3939 6.2084 56.8712 5.99519C57.3472 5.78074 57.8926 5.6729 58.4913 5.6729C59.0739 5.6729 59.6119 5.78074 60.0891 5.99519C60.5651 6.2084 60.9767 6.50342 61.3114 6.8753C61.6461 7.24594 61.9088 7.68723 62.0935 8.18678C62.2795 8.68757 62.3737 9.23795 62.3737 9.82304C62.3737 10.4094 62.2795 10.9597 62.0935 11.4618C61.9076 11.9613 61.6448 12.4026 61.3114 12.7733C60.9767 13.1427 60.5664 13.4389 60.0891 13.6534ZM80.4382 4.4358C79.7102 3.79129 78.861 3.29826 77.9404 2.98548C76.981 2.64955 75.9137 2.47973 74.7696 2.47973H68.6224V17.1465H74.7906C75.9224 17.1465 76.9822 16.9767 77.9392 16.6408C78.8624 16.3269 79.7124 15.8293 80.4382 15.1781C81.1438 14.5334 81.7045 13.7463 82.0831 12.8687C82.4773 11.97 82.6756 10.9387 82.6756 9.80197C82.6756 8.66527 82.4773 7.63269 82.0831 6.73523C81.7063 5.85955 81.1452 5.07529 80.4382 4.4358ZM78.7486 9.80321C78.7501 10.3206 78.659 10.834 78.4796 11.3192C78.3087 11.7856 78.0461 12.2129 77.7074 12.5762C77.3739 12.9319 76.9549 13.2208 76.4641 13.4352C75.9732 13.6484 75.4055 13.7575 74.7782 13.7575H72.485V5.86876H74.8005C75.4575 5.86876 76.0401 5.97041 76.531 6.16998C77.0206 6.36831 77.4359 6.65094 77.7619 7.00546C78.0892 7.36122 78.3371 7.7802 78.5007 8.25124C78.6656 8.72228 78.7486 9.24415 78.7486 9.80196M93.2406 2.47973H88.4558L82.9768 17.0672L82.9459 17.1465H87.3191L88.0381 15.0516H93.6807L94.3996 17.1465H98.7716L93.2555 2.51692L93.2406 2.47973ZM92.6171 11.6626H89.0781L90.8482 6.42905L92.6171 11.6626Z" fill="#0A212F"/>
<path fill-rule="evenodd" clip-rule="evenodd" d="M107.733 2.48009L104.653 7.78924L101.545 2.5086L101.529 2.48009H97.1647L102.722 11.2378V17.1469H106.584V11.2378L112.119 2.48009H107.733M17.5857 0.19801C8.55661 0.19801 1.18231 7.30084 0.727388 16.2321C0.712508 16.5221 0.705078 16.8147 0.705078 17.1084H5.08082C5.08082 16.8233 5.09198 16.5395 5.11057 16.2593C5.5469 9.74778 10.975 4.58242 17.5858 4.58242C24.22 4.58242 29.6655 9.78745 30.0647 16.3349C30.0808 16.5903 30.0895 16.8481 30.0895 17.1084H34.4652C34.4652 16.8754 34.4602 16.6448 34.4503 16.4143C34.0884 7.39752 26.6756 0.198 17.5858 0.198" fill="#0A212F"/>
<path fill-rule="evenodd" clip-rule="evenodd" d="M17.5853 5.836C11.6179 5.836 6.7389 10.4869 6.35462 16.3651C6.33847 16.6126 6.33062 16.8607 6.33107 17.1088H10.7081C10.7081 16.8386 10.7229 16.5733 10.7539 16.3105C11.1506 12.8868 14.0624 10.2192 17.584 10.2192C21.1255 10.2192 24.051 12.914 24.4216 16.3638C24.4489 16.6093 24.4613 16.8559 24.4613 17.1076H28.837C28.837 16.8671 28.8308 16.6291 28.8159 16.3911C28.4465 10.4993 23.5601 5.836 17.5853 5.836Z" fill="#0A212F"/>
<path fill-rule="evenodd" clip-rule="evenodd" d="M17.5857 11.471C14.4743 11.4724 11.9539 13.9972 11.958 17.1086H23.2122C23.2122 13.9976 20.693 11.4757 17.5832 11.4722" fill="#0A212F"/>
</svg>
