<svg width="91" height="23" viewBox="0 0 91 23" fill="none" xmlns="http://www.w3.org/2000/svg">
<path fill-rule="evenodd" clip-rule="evenodd" d="M41.2571 0.72025L53.8438 12.4889V1.46896H57.9171V21.8812L45.3576 9.88203V21.2094H41.2571V0.719M60.198 1.52102H68.792C70.106 1.52102 73.8371 2.51269 73.9685 6.4992C74.0751 9.46801 71.6059 10.8502 71.6059 10.8502C72.9446 11.4761 74.9949 13.0145 74.9949 16.1395C74.9949 19.1889 72.2889 21.43 69.9746 21.43H60.198V1.51979V1.52227V1.52102ZM64.3258 9.54735H67.452C68.6879 9.38992 69.6337 8.4528 69.6337 7.1252C69.6337 5.71703 68.3978 4.93609 67.3739 4.85676H64.3245V9.54736L64.3258 9.54735ZM64.3506 18.2245H67.9763C68.8974 18.1464 70.4716 17.3654 70.4716 15.568C70.4716 13.8202 68.9221 12.9872 68.0817 12.9612H64.3481V18.2257H64.3506V18.2245ZM90.5505 5.78272C86.2404 2.94159 80.4082 5.83478 80.0388 11.0981C79.8813 17.4832 86.2392 20.1148 90.5504 17.3518V21.4424C82.9295 24.2588 75.9394 18.9422 75.9134 11.2282C75.9382 4.6894 83.2183 -1.09575 90.5504 1.79497V5.78272" fill="#0A212F"/>
<path fill-rule="evenodd" clip-rule="evenodd" d="M33.4105 21.2267C32.8279 21.4833 32.1821 21.5986 31.4916 21.5986L3.9121 21.5738C2.35394 21.4573 0.821823 20.1805 0.387963 18.6546C-0.0768769 17.1274 0.375563 15.5532 1.39202 14.44C2.37501 13.4347 3.63939 13.0145 5.04384 13.1731C3.72368 12.2806 3.16711 10.8055 3.358 9.22382C3.53402 7.84788 4.53809 6.50789 5.82478 5.95999C7.29369 5.30549 9.14687 5.66125 10.2997 6.76572C10.0604 5.95999 9.93524 4.80469 10.2625 3.97789C10.6567 2.67384 11.9359 1.51235 13.2338 1.23964C14.9692 0.870242 16.6203 1.51979 17.617 2.99489C17.8066 3.27132 17.9194 3.58617 18.0669 3.87748C18.5665 2.46683 20.0069 1.2979 21.4696 1.14791C22.9782 0.954532 24.4049 1.59664 25.3532 2.85854C26.0895 3.90475 26.3424 5.46663 25.8652 6.72729H25.9222C27.0167 5.7505 28.6741 5.39473 30.0872 5.93643C31.4346 6.37772 32.58 7.80449 32.7622 9.20894C32.9667 10.7634 32.4325 12.1232 31.245 13.1298C33.0424 13.0232 34.7505 13.9714 35.4893 15.63C36.1339 17.0791 35.9455 19.0166 34.8509 20.1942C34.4096 20.6355 33.9373 21.0061 33.4093 21.2267H33.4118" fill="#FFFFFE"/>
<path fill-rule="evenodd" clip-rule="evenodd" d="M30.4889 13.1734L20.2871 19.9366L23.7232 11.8396L25.3533 8.06881C26.0127 6.85154 27.2573 6.07308 28.6134 6.052C29.9112 6.052 31.0641 6.67179 31.7954 7.7837C32.5466 8.89561 32.5887 10.7141 31.8376 11.8396C31.4844 12.3722 31.0253 12.8262 30.4889 13.1734" fill="#0A212F"/>
<path fill-rule="evenodd" clip-rule="evenodd" d="M25.4089 6.78568L20.365 18.6113L20.1394 17.3222L18.6234 7.6286C18.5614 7.03608 18.8056 6.53776 19.2829 6.21051L20.0068 5.78285C20.0502 5.6341 19.8382 5.58452 19.739 5.53245L18.3209 5.52005C18.2292 4.1218 18.8465 2.85494 20.0415 2.09011C20.9687 1.49263 22.3818 1.33396 23.4132 1.81988C24.7556 2.36282 25.689 3.78091 25.7114 5.22626C25.7052 5.76052 25.6122 6.30966 25.4089 6.78814V6.78566" fill="#0A212F"/>
<path fill-rule="evenodd" clip-rule="evenodd" d="M15.7233 18.6534L10.7575 6.80042C10.2245 5.53108 10.4489 3.8626 11.3624 2.83622C12.338 1.7615 13.7152 1.30409 15.1333 1.66853C16.3357 1.95983 17.4575 3.10025 17.755 4.32001C17.8938 4.77494 17.874 5.32531 17.8467 5.82363L15.7245 18.6534" fill="#0A212F"/>
<path fill-rule="evenodd" clip-rule="evenodd" d="M5.10877 12.7444C4.08859 11.868 3.63366 10.6991 3.77993 9.34542C3.92868 7.97568 5.01704 6.63692 6.31612 6.22414C7.65115 5.81012 9.10519 6.13737 10.0733 7.12904C10.4824 7.51579 10.734 7.97196 10.9447 8.44176L15.7444 19.96L5.10876 12.7481V12.7444" fill="#0A212F"/>
<path fill-rule="evenodd" clip-rule="evenodd" d="M4.01763 21.1595C2.69127 21.0108 1.66862 20.3005 1.04386 19.0931C0.411667 17.8759 0.575297 16.1479 1.42689 15.067C2.35162 13.9674 3.69161 13.4146 5.04152 13.6848C5.5919 13.7728 6.05178 14.0071 6.48564 14.2773L16.8114 21.162L4.01887 21.1595" fill="#0A212F"/>
<path fill-rule="evenodd" clip-rule="evenodd" d="M32.0506 21.1595C33.3769 21.0108 34.4008 20.3005 35.0243 19.0931C35.6565 17.8759 35.4917 16.1479 34.6426 15.067C33.7178 13.9674 32.3778 13.4146 31.0279 13.6848C30.4776 13.7728 30.0177 14.0071 29.5838 14.2773L19.2581 21.162L32.0493 21.1595H32.0506" fill="#0A212F"/>
</svg>
