<svg width="213" height="30" viewBox="0 0 213 30" fill="none" xmlns="http://www.w3.org/2000/svg">
<g clip-path="url(#clip0_23728_1791)">
<path fill-rule="evenodd" clip-rule="evenodd" d="M13.9694 0.0268153C14.5631 0.0788753 15.4941 0.370185 16.1944 0.983775C16.9394 1.7077 17.1092 2.80473 16.8489 3.80136C16.6159 4.69014 16.3556 5.15251 15.4482 5.76611C14.5322 6.3859 13.424 6.3326 13.424 6.3326V10.1815L15.297 11.6963L13.424 13.2086V18.452C13.424 18.452 15.3007 17.3761 16.4659 14.9688C16.4659 14.9688 16.513 14.8374 16.6233 14.5882C16.7262 15.2328 16.6667 16.5406 15.9366 18.2165C15.3862 19.4797 14.3871 20.6957 13.1314 21.3874C10.9064 22.6208 9.23912 22.7385 7.4504 22.3667C5.3555 21.9365 3.45522 20.7601 2.15737 18.7099C1.2438 17.267 0.837213 15.5861 0.874403 13.7788C0.947543 10.2286 3.58909 7.16808 6.63847 6.02642C7.01035 5.88759 7.15786 5.79586 7.68344 5.74751C7.44172 5.91361 7.16033 6.12682 6.81573 6.35243C5.83398 6.99702 4.99354 8.28246 4.63406 9.27166L10.5518 6.63134V14.9031L5.77944 17.293C6.32362 18.0467 7.97599 19.1883 9.38911 19.3495C11.7939 19.6148 13.2046 18.5648 13.2046 18.5648V13.2073L11.3402 11.6975L13.2058 10.1865V6.33135C12.1893 6.21483 10.9547 5.88014 10.232 5.7004C9.17094 5.44008 5.63192 4.44718 5.07534 4.36413C4.52001 4.28108 3.83328 4.30711 3.41925 4.67775C3.00399 5.0521 2.74616 5.70909 2.92342 6.30161C3.02259 6.6363 3.25439 6.83339 3.42917 7.02429C3.42917 7.02429 3.22464 7.00694 2.854 6.78505C2.18586 6.38465 1.67763 5.60124 1.61689 4.63437C1.52148 3.3885 2.08598 2.18376 3.10439 1.45979C4.01549 0.875935 5.0431 0.500345 6.23806 0.671405C7.98092 0.919325 10.3237 1.90356 12.4112 2.40435C13.2207 2.6002 13.8466 2.66466 14.4144 2.33493C14.6796 2.14279 15.1457 1.65068 14.7652 0.997415C14.3189 0.231355 13.4661 0.248705 12.7459 0.113585C13.3657 -0.0178147 13.502 -0.0178147 13.9694 0.0268153H13.9694ZM6.93348 16.4712V8.48452L4.52992 9.55552C4.52992 9.55552 3.91756 10.9265 4.02417 12.9173C4.1097 14.473 4.97865 16.3323 5.64803 17.112L6.93348 16.4712V16.4712Z" fill="#0A212F"/>
<path fill-rule="evenodd" clip-rule="evenodd" d="M36.9249 8.09627C36.9249 8.09627 35.1114 9.1933 33.8929 9.92094C32.6732 10.6436 31.0369 11.4407 31.0369 11.4407V19.0629L29.9461 19.938L30.0911 20.1079L31.1547 19.2501L34.4904 22.2648L40.2867 17.6733L40.1503 17.5072L36.946 20.0211L34.3131 17.5555V16.637L39.6024 12.7472L36.9249 8.09626L36.9249 8.09627ZM37.0018 14.3897L34.3131 16.3581V9.80937L37.003 14.3909L37.0018 14.3897ZM21.7313 25.1307C22.4924 25.3166 23.8349 25.422 25.4538 24.61C27.2463 23.7138 28.1474 21.8111 28.135 19.8599L28.2106 17.0944V11.0527L29.3573 10.1775L29.2234 10.0077L28.0954 10.8568L25.4935 7.9661L22.1553 10.8308V1.09259L17.9841 4.31552C18.17 4.43328 18.76 4.54236 18.7774 5.37413V19.0158L17.011 20.326L17.1325 20.5095L17.9853 19.8723L20.3603 22.08L24.1002 19.1063L23.9638 18.9364L23.085 19.6331L22.1553 18.7096L22.1639 11.1109L23.2548 10.1812L24.8786 12.1993C24.8786 12.1993 24.8749 17.1205 24.8786 18.7542C24.8675 20.4959 24.8613 22.6688 23.9465 23.7188C23.0304 24.7724 22.6635 24.8555 21.7313 25.1294M47.6845 24.4415C46.1908 24.2716 45.5624 23.3655 45.5797 22.6515C45.5909 22.1929 46.0061 21.2966 46.9148 21.1751C47.8234 21.0487 48.7506 21.4751 49.534 22.3949L52.985 18.5832L52.8189 18.4344L51.8917 19.472C50.9526 18.4237 49.6766 17.7366 48.2845 17.5295V5.91831L57.2467 22.2375C57.2467 22.2375 57.3335 22.4247 57.7004 22.4247C58.0177 22.4247 57.9421 22.1681 57.9421 22.1681L57.9409 5.74353C58.6685 5.71378 59.7804 5.31339 60.3209 4.76054C62.0464 2.98793 61.3411 1.05418 61.1514 0.867001C61.046 1.71116 60.3953 2.56028 59.3106 2.56523C57.8876 2.56895 57.0199 1.51902 57.0199 1.51902L53.5713 5.44851L53.7362 5.59726L54.7241 4.46924C55.9302 5.57867 56.8116 5.68403 57.7227 5.74354V15.2735L51.0735 3.19991C50.4723 2.20328 49.5551 1.32813 48.1184 1.31574C46.4672 1.30582 45.2847 2.7611 45.1434 4.01556C44.9835 5.43117 45.1607 5.75718 45.1607 5.75718C45.1607 5.75718 45.4037 4.18043 46.3792 4.19406C47.2556 4.20646 47.7118 5.01219 48.0651 5.61835V9.11398C47.1602 9.17596 44.8062 9.28132 44.6624 11.7283C44.6525 12.6381 45.2178 13.5926 45.7123 13.9149C46.3495 14.3326 46.8466 14.324 46.8466 14.324C46.8466 14.324 46.083 13.9186 46.3123 13.1178C46.5168 12.3989 48.0105 12.2811 48.0651 12.5823V17.5159C47.3461 17.5072 45.043 17.5866 44.0042 19.56C43.3782 20.7525 43.4142 22.0863 44.0835 23.0259C44.6289 23.7932 45.752 24.7737 47.6845 24.4415M66.6143 8.09627C66.6143 8.09627 64.8007 9.1933 63.581 9.92094C62.3625 10.6436 60.7262 11.4407 60.7262 11.4407V19.0629L59.6354 19.938L59.7804 20.1079L60.844 19.2501L64.1785 22.2648L69.976 17.6733L69.8397 17.5072L66.6353 20.0211L64.0024 17.5555V16.637L69.2918 12.7472L66.6142 8.09626L66.6143 8.09627ZM66.6923 14.3897L64.0024 16.3581V9.80937L66.6923 14.3909V14.3897ZM74.7174 22.3205L71.8751 19.9591L70.6268 20.8665L70.5004 20.688L71.7697 19.7596V13.1612C71.8317 10.4441 69.2794 11.1184 69.4182 8.23511C69.4789 6.96825 70.7061 6.01005 71.3247 5.69272C71.9879 5.35679 72.7056 5.35679 72.7056 5.35679C72.7056 5.35679 71.5429 6.08319 71.8255 7.1294C72.2593 8.74086 75.0162 8.88465 75.0682 11.0316V18.5187L77.1036 20.1475L77.6391 19.7298V11.6229L76.5409 10.5345L79.3671 8.03428L81.9479 10.3213L80.9637 11.3886V18.5708L83.3809 20.5665L83.8098 20.2901V11.6452L82.7115 10.6176L85.5415 8.03056L88.1892 10.2172L89.2454 9.2813L89.3891 9.44616L87.0091 11.5361V18.5832L80.9203 22.3379L77.8065 19.8723L74.7174 22.3205M199.27 8.09627C199.27 8.09627 197.455 9.1933 196.236 9.92094C195.017 10.6436 193.38 11.4407 193.38 11.4407V19.0629L192.29 19.938L192.436 20.1079L193.499 19.2501L196.834 22.2648L202.632 17.6733L202.495 17.5072L199.291 20.0211L196.657 17.5555V16.637L201.947 12.7472L199.27 8.09626V8.09627ZM199.347 14.3897L196.657 16.3581V9.80937L199.347 14.3909V14.3897ZM172.056 11.2845L172.198 11.4494L173.289 10.5085L174.911 12.3431V18.6402L174.124 19.3592L176.649 22.2115L179.239 19.6591L178.175 18.5572V10.9399L178.819 10.4267L180.61 12.5166V18.7964L179.937 19.4683L182.315 22.142L184.857 19.5984L183.924 18.6191L183.899 10.9709L184.586 10.4131L186.454 12.4683V18.7146L185.839 19.3282L188.464 22.1904L191.99 18.9365L191.841 18.7753L190.984 19.5637L189.67 18.1085V10.9796L190.939 10.0164L190.807 9.84289L189.538 10.8048L187.14 8.11739L183.71 10.8271L181.308 8.21408L177.996 10.8048L175.573 8.22648L172.056 11.2845" fill="#0A212F"/>
<path fill-rule="evenodd" clip-rule="evenodd" d="M164.88 11.0881L165.023 11.2542L165.945 10.4571L167.388 12.164V19.3636L166.37 20.2523L166.511 20.4184L167.58 19.5073L169.907 22.1911L173.27 19.19L173.127 19.0239L172.137 19.8953L170.747 18.2926V11.2542L171.92 10.2402L171.777 10.0741L170.664 11.0323L168.216 8.18L164.88 11.0881" fill="#0A212F"/>
<path fill-rule="evenodd" clip-rule="evenodd" d="M165.849 5.12648L168.381 2.80845L170.44 5.09177L167.897 7.39988L165.849 5.12648ZM162.446 0.0268153C163.039 0.0788753 163.97 0.370185 164.671 0.983775C165.414 1.7077 165.585 2.80473 165.324 3.80136C165.092 4.69014 164.832 5.15251 163.923 5.76611C163.008 6.3859 161.9 6.3326 161.9 6.3326V10.1815L163.774 11.6963L161.9 13.2086V18.452C161.9 18.452 163.777 17.3761 164.942 14.9688C164.942 14.9688 164.989 14.8374 165.098 14.5882C165.201 15.2328 165.143 16.5406 164.413 18.2165C163.862 19.4797 162.861 20.6957 161.606 21.3874C159.383 22.6208 157.714 22.7385 155.927 22.3667C153.832 21.9365 151.931 20.7601 150.634 18.7099C149.721 17.267 149.312 15.5861 149.351 13.7788C149.424 10.2286 152.065 7.16808 155.115 6.02642C155.485 5.88759 155.633 5.79586 156.16 5.74751C155.917 5.91361 155.637 6.12682 155.292 6.35243C154.31 6.99701 153.47 8.28246 153.11 9.27166L159.028 6.63134V14.9031L154.256 17.293C154.8 18.0467 156.451 19.1883 157.867 19.3495C160.27 19.6148 161.681 18.5648 161.681 18.5648V13.2073L159.818 11.6975L161.681 10.1865V6.33135C160.664 6.21483 159.431 5.88014 158.708 5.7004C157.647 5.44008 154.107 4.44718 153.552 4.36413C152.996 4.28108 152.31 4.30711 151.894 4.67775C151.479 5.0521 151.222 5.70909 151.398 6.30161C151.499 6.6363 151.729 6.83339 151.904 7.02429C151.904 7.02429 151.7 7.00694 151.33 6.78505C150.661 6.38465 150.153 5.60124 150.092 4.63437C149.997 3.38807 150.563 2.18334 151.582 1.45979C152.49 0.875945 153.517 0.500345 154.713 0.671405C156.455 0.919325 158.799 1.90356 160.886 2.40435C161.696 2.6002 162.322 2.66466 162.889 2.33493C163.155 2.14279 163.621 1.65068 163.239 0.997415C162.795 0.231355 161.944 0.248705 161.223 0.113585C161.843 -0.0178147 161.98 -0.0178147 162.447 0.0268153H162.446ZM155.408 16.4712V8.48452L153.006 9.55552C153.006 9.55552 152.393 10.9265 152.499 12.9173C152.583 14.473 153.454 16.3323 154.123 17.112L155.408 16.4712ZM205.721 23.2492C205.336 23.3608 203.667 22.9567 203.266 21.2275C202.876 19.5416 204.047 18.4012 205.815 16.6063L203.728 14.6986V11.0579C203.728 11.0579 205.262 10.2918 206.465 9.54189C207.667 8.78822 208.897 7.97381 208.897 7.97381C208.897 7.97381 209.793 9.10679 210.807 9.01506C212.393 8.87623 212.32 7.62672 212.274 7.32922C212.545 7.81266 213.27 9.25058 210.482 12.4648L212.753 14.2982V19.0284C212.753 19.0284 210.114 20.3994 207.619 22.2204C207.619 22.2204 206.225 20.4788 205.015 21.3105C204.2 21.872 204.573 22.8216 205.721 23.2492L205.721 23.2492ZM203.757 19.6024C203.757 19.6024 204.956 17.6215 207.016 18.0479C208.991 18.457 209.676 20.5432 209.676 20.5432V15.7398L208.299 14.5424C206.786 16.0621 204.091 18.2611 203.757 19.6024ZM206.814 9.56791V13.3536L208.075 14.4506C208.075 14.4506 210.813 12.2591 211.806 10.2299C211.806 10.2299 210.576 11.8983 208.92 11.3889C207.533 10.9674 206.814 9.56791 206.814 9.56791Z" fill="#0A212F"/>
<path fill-rule="evenodd" clip-rule="evenodd" d="M120.478 11.2398L121.501 10.3002L121.647 10.465L120.651 11.3885V18.9103C120.651 18.9103 118.759 19.9119 117.439 20.6569C116.119 21.4007 114.709 22.2771 114.709 22.2771L111.238 19.3541L110.32 20.1511L110.171 19.985L111.137 19.1458V11.0575H111.149C111.149 11.0575 112.785 10.3163 114.168 9.53781C115.403 8.84116 116.786 8.03419 116.786 8.03419L120.478 11.2398L120.478 11.2398ZM114.429 17.8691L117.363 20.5218V12.4025L114.43 9.69028V17.8691L114.429 17.8691ZM127.303 10.4787L129.507 8.22633C129.507 8.22633 129.811 8.49284 130.095 8.63167C130.256 8.70976 130.923 9.05313 131.535 8.71844C131.868 8.53622 131.915 8.48788 132.279 8.14327C132.354 9.89481 131.512 11.127 130.463 11.6364C130.034 11.8459 128.78 12.2463 127.467 10.6485V18.7405L128.863 19.9727L130.028 19.0095L130.163 19.1806L126.514 22.2237L123.737 19.6987L122.739 20.6395L122.576 20.466L124.097 19.0925L124.109 12.1075L122.943 10.5605L121.939 11.4455L121.795 11.2844L125.328 8.10857L127.304 10.4787M136.599 13.8491L140.677 7.9214C140.677 7.9214 141.214 8.55731 142.15 8.80522C143.424 9.13743 144.535 7.909 144.535 7.909C144.323 9.49443 143.519 11.2931 141.857 11.567C140.395 11.8112 139.035 10.6745 139.035 10.6745L138.771 11.0836L144.431 19.6281L145.563 18.6364L145.709 18.8013L141.825 22.194L136.599 13.8491Z" fill="#0A212F"/>
<path fill-rule="evenodd" clip-rule="evenodd" d="M133.231 5.93637C133.231 4.65588 132.707 3.8675 132.021 3.92452L136.468 0.802V18.476H136.469L137.643 19.7119L138.533 18.9421L138.673 19.107L135.089 22.2345L132.661 19.9561L131.689 20.8102L131.535 20.6441L133.231 19.169V5.93513M96.0559 5.64507C96.0559 4.45135 95.57 3.78569 94.7854 3.7671C93.6548 3.74231 93.3871 5.33518 93.3871 5.33518C93.3871 5.33518 93.1813 4.10799 94.2089 2.99236C94.7878 2.37009 95.8663 1.4937 97.5534 1.89904C99.295 2.32174 99.7896 3.67165 99.7896 4.86537V21.306C99.7896 21.306 100.447 21.3841 100.899 21.4858C101.423 21.5936 101.919 21.7337 101.919 21.7337V1.90772H102.136V4.58151L105.706 1.70815L108.324 4.03361L109.544 2.97996L109.683 3.14482L108.406 4.24185V19.5297C108.344 20.5263 108.183 21.5415 107.241 22.1254C105.14 23.3711 102.605 21.9345 100.346 21.6072C98.669 21.3593 96.0386 21.0407 95.3779 22.5778C95.1622 23.0836 95.1771 23.862 95.9369 24.3715C97.4629 25.3917 104.258 22.6609 106.589 23.7455C108.713 24.7335 108.706 26.2978 108.377 27.3725C107.825 29.3894 105.278 29.7426 105.278 29.7426C105.278 29.7426 106.523 29.0187 106.168 27.8213C105.989 27.2163 105.577 27.0465 104.243 27.194C101.33 27.525 97.8509 28.9357 95.5105 27.9564C94.3056 27.4556 93.4528 25.9483 93.5358 24.4682C93.5953 22.3386 96.0559 21.4981 96.0559 21.4981V13.6193C95.9853 13.3057 94.6713 13.3875 94.385 13.9664C93.9486 14.8428 94.9279 15.2432 94.9279 15.2432C94.9279 15.2432 94.116 15.3659 93.4354 14.5812C93.1045 14.1982 92.4128 12.857 93.3115 11.6161C94.0515 10.5922 94.9378 10.4137 96.0559 10.2923V5.64382L96.0559 5.64507ZM102.136 21.7944C102.136 21.7944 103.172 22.0684 103.927 21.4498C104.766 20.7569 104.678 19.7863 104.678 19.7863V13.6627C104.678 13.6627 104.191 13.0355 103.419 13.0355C102.646 13.0355 102.136 13.685 102.136 13.685V21.7944H102.136ZM104.678 5.7182L102.964 4.2121L102.137 4.86536V10.5402C102.137 10.5402 102.646 11.1848 103.42 11.1848C104.193 11.1848 104.68 10.5662 104.68 10.5662V5.71944L104.678 5.7182ZM104.678 10.9059C104.678 10.9059 104.188 11.4637 103.414 11.4637C102.642 11.4637 102.136 10.9009 102.136 10.9009V13.3231C102.136 13.3231 102.642 12.7615 103.414 12.7615C104.188 12.7615 104.678 13.2921 104.678 13.2921V10.9059Z" fill="#0A212F"/>
</g>
<defs>
<clipPath id="clip0_23728_1791">
<rect width="211.881" height="29.7426" fill="white" transform="translate(0.87207)"/>
</clipPath>
</defs>
</svg>
