<svg width="121" height="26" viewBox="0 0 121 26" fill="none" xmlns="http://www.w3.org/2000/svg">
<path fill-rule="evenodd" clip-rule="evenodd" d="M19.265 8.01073H24.8865V24.9286H19.265V8.01073ZM26.0492 1.39505H31.6683V24.9286H26.0492V1.39505ZM32.8323 1.39505H38.4513V24.9286H32.8323V1.39505ZM98.9394 9.75483V8.01073H93.3191V24.9286H98.9394V16.8651C98.9394 14.7913 100.035 13.6719 102.032 13.6719H102.698V7.84586C101.002 7.91156 99.7711 8.43838 98.9394 9.75482L98.9394 9.75483ZM22.0751 0.479C20.2765 0.479 18.8163 1.92312 18.8163 3.7044C18.8163 5.48569 20.2765 6.93104 22.0764 6.93104C23.8763 6.93104 25.334 5.48568 25.334 3.7044C25.3352 1.92311 23.8763 0.479 22.0751 0.479ZM86.5336 9.29866C85.744 8.44582 83.9057 7.74174 82.5111 7.74174C78.2656 7.74174 75.2211 10.511 74.4749 14.6289C73.663 10.6783 70.1847 7.64009 65.9428 7.64009C61.6601 7.64009 58.1545 10.7143 57.3885 14.738C56.6447 10.5556 53.3201 7.78388 49.1973 7.78388C47.6676 7.78388 46.4032 8.11237 45.305 8.86852V1.39753H39.6859V24.9311H45.207V23.3841C46.5371 24.6026 47.9676 25.1616 49.7315 25.1616C53.5271 25.1616 56.7228 22.2201 57.407 18.1667C58.2128 22.1333 61.6712 25.1493 65.9428 25.1493C70.1797 25.1493 73.5762 22.1978 74.4414 18.3315C75.1567 22.5536 78.537 25.1951 82.5768 25.1951C83.9726 25.1951 85.5035 24.7327 86.5348 23.9766V24.9311H92.1539V17.527C92.1539 17.2233 92.1526 16.9271 92.1464 16.6383C92.1526 16.3494 92.1539 16.0532 92.1539 15.7495V8.03924H86.5348V9.29866H86.5336ZM48.5998 19.7769C46.7999 19.7769 45.3397 18.3328 45.3397 16.5503C45.3397 14.7702 46.7999 13.3249 48.5998 13.3249C50.3984 13.3249 51.8587 14.7702 51.8587 16.5503C51.8587 18.3328 50.3997 19.7769 48.5986 19.7769H48.5998ZM65.9428 19.5191C64.1442 19.5191 62.6827 18.0725 62.6827 16.2924C62.6827 14.5111 64.1442 13.067 65.9428 13.067C67.7427 13.067 69.2029 14.5111 69.2029 16.2924C69.2029 18.0725 67.7427 19.5191 65.9428 19.5191ZM82.8309 19.6207C81.0311 19.6207 79.5733 18.1753 79.5733 16.3941C79.5733 14.614 81.0311 13.1687 82.8309 13.1687C84.6321 13.1687 86.0911 14.614 86.0911 16.3941C86.0911 18.1754 84.6321 19.6207 82.8309 19.6207ZM115.168 1.39258V8.86357C114.073 8.10742 112.809 7.77893 111.278 7.77893C106.589 7.77893 102.931 11.3663 102.931 16.5341C102.931 21.4057 106.456 25.1567 110.748 25.1567C112.508 25.1567 113.938 24.5964 115.27 23.3804V24.9261H120.791V1.39258H115.169H115.168ZM111.858 19.7347C110.061 19.7347 108.602 18.2894 108.602 16.5093C108.602 14.7281 110.061 13.2827 111.86 13.2827C113.659 13.2827 115.12 14.7281 115.12 16.5093C115.12 18.2894 113.659 19.7347 111.86 19.7347H111.858ZM10.2904 7.78388C8.76074 7.78388 7.4976 8.11237 6.39809 8.86852V1.39753H0.779053V24.9311H6.29892V23.3841C7.63024 24.6026 9.05948 25.1616 10.8234 25.1616C15.1124 25.1616 18.6378 21.4082 18.6378 16.5378C18.6378 11.3713 14.9797 7.78389 10.2904 7.78389V7.78388ZM9.69291 19.7769C7.89303 19.7769 6.4328 18.3328 6.4328 16.5503C6.4328 14.7702 7.89303 13.3249 9.69291 13.3249C11.4928 13.3249 12.9518 14.7715 12.9518 16.5503C12.9518 18.3328 11.4928 19.7769 9.69167 19.7769H9.69291Z" fill="#0A212F"/>
</svg>
