<svg width="19" height="19" viewBox="0 0 19 19" fill="none" xmlns="http://www.w3.org/2000/svg">
<path d="M2.375 7.71875H5.9375V15.4375H2.375C2.21753 15.4375 2.06651 15.3749 1.95516 15.2636C1.84381 15.1522 1.78125 15.0012 1.78125 14.8438V8.3125C1.78125 8.15503 1.84381 8.00401 1.95516 7.89266C2.06651 7.78131 2.21753 7.71875 2.375 7.71875V7.71875Z" stroke="#495057" stroke-width="1.5" stroke-linecap="round" stroke-linejoin="round"/>
<path d="M5.9375 7.71875L8.90625 1.78125C9.21814 1.78125 9.52697 1.84268 9.81512 1.96204C10.1033 2.08139 10.3651 2.25633 10.5856 2.47687C10.8062 2.69741 10.9811 2.95923 11.1005 3.24738C11.2198 3.53553 11.2812 3.84436 11.2812 4.15625V5.9375H15.8736C16.042 5.9375 16.2084 5.97331 16.3619 6.04255C16.5154 6.11179 16.6524 6.21288 16.7638 6.33911C16.8752 6.46534 16.9586 6.61383 17.0082 6.77471C17.0579 6.9356 17.0728 7.10521 17.0519 7.27229L16.1613 14.3973C16.1254 14.6845 15.9858 14.9487 15.7688 15.1402C15.5519 15.3318 15.2724 15.4375 14.9829 15.4375H5.9375" stroke="#495057" stroke-width="1.5" stroke-linecap="round" stroke-linejoin="round"/>
</svg>
