<svg width="77" height="20" viewBox="0 0 77 20" fill="none" xmlns="http://www.w3.org/2000/svg">
<path fill-rule="evenodd" clip-rule="evenodd" d="M18.325 6.0118L2.04178 6.03659C2.05294 6.04651 2.75578 0.958 2.75578 0.958L18.9262 0.9704L18.325 6.0118ZM54.6126 1.05841C57.3521 1.05841 56.9505 5.1726 56.8104 6.01924L19.4828 6.03659C19.5584 4.60363 19.9811 3.20661 21.1537 2.18519C22.2384 1.33731 22.961 1.06832 23.8721 1.06832L54.6138 1.05964L54.6126 1.05841ZM74.2675 1.03733C75.3769 1.03733 76.055 1.93231 76.3388 2.71449C76.6239 3.49791 76.4888 5.38208 76.3785 6.03906L58.0116 6.01923L58.5136 1.04725L74.2675 1.03733ZM34.8623 8.28272C37.5026 8.28768 37.5423 9.88674 37.0006 14.0716C36.5593 17.4879 36.4081 19.7638 34.5809 19.7638L32.9967 19.7762H17.8713L18.4477 14.9802L30.4717 14.9889C31.451 15 31.2514 12.62 31.2514 12.62L21.0967 12.6052C19.9811 12.6027 18.9869 11.1338 19.0427 10.0913L19.1915 8.28147L34.8623 8.28271L34.8623 8.28272ZM17.4238 12.6126L7.31871 12.6299L6.95179 14.9926H17.166L16.5685 19.7774H0.196045L1.74924 8.2827H17.9482L17.4238 12.6126ZM56.5414 8.28272C56.4088 9.08845 55.9873 12.5196 53.6705 12.5196L44.4579 12.5221L43.4613 19.7762H37.4815L38.8897 8.28272H56.5414ZM62.1914 19.7762H56.2687L57.7339 8.28271H63.6566L62.1914 19.7762ZM74.7658 19.7762H68.9335L70.2822 8.28271H76.1331L74.7658 19.7762Z" fill="#0A212F"/>
</svg>
