<svg width="89" height="21" viewBox="0 0 89 21" fill="none" xmlns="http://www.w3.org/2000/svg">
<path fill-rule="evenodd" clip-rule="evenodd" d="M1.50619 1.34103H0.988037V0.958H5.68731V1.34103H4.40558L6.97896 14.6666L9.55358 1.34227H8.03261V0.958H10.8353V1.34103H10.0097L6.35545 20.1716H5.16049L1.50619 1.34103ZM10.813 13.8373H13.6665L12.241 6.40971L10.813 13.8386L10.813 13.8373ZM8.37349 19.7886H9.20153L12.8657 0.958H14.0632L17.7274 19.7886H18.2208V20.1716H13.5351V19.7886H14.8206L13.7372 14.2216H10.7436L9.66018 19.7886H11.1849V20.1716H8.37349V19.7886ZM18.7587 20.3427H19.3909V1.35219H18.2208V0.958H22.3312L26.5669 12.9051V1.35219H25.3211V0.958H28.068V1.35219H27.0478V20.7914H26.2892L19.8719 2.36121V20.3426H21.1177V20.7368H18.7587V20.3426M28.6841 20.1716V19.7886H29.5605V1.34227H28.6841V0.958H33.6077V1.34103H32.7028V19.7873H33.6077V20.1704H28.6841" fill="#0A212F"/>
<path fill-rule="evenodd" clip-rule="evenodd" d="M35.9026 20.1716V19.7886H36.7629V1.30633H36.7108C35.4849 1.30633 34.2255 2.64136 33.9899 8.46742H33.6082V0.958H42.8394V8.46742H42.4576C42.1973 2.64136 40.8312 1.30509 39.7367 1.30509H39.6586V19.7886H40.5449V20.1716H35.9026M46.6796 20.1716V19.7886H47.5969V11.228L44.69 1.34228H44.0703V0.95801H49.0955V1.34104H47.6898L50.3921 10.3999L52.704 1.34104H51.2413V0.95801H53.9188V1.34104H53.1874L50.6797 11.1933V19.7886H51.597V20.1716H46.6796M56.3793 20.1716V19.7886H57.1727V1.34228H56.3793V0.95801H64.9957V6.70349H64.5953C64.3486 2.64136 63 1.34104 60.8654 1.34104H60.2084V10.0169H60.501C62.1508 10.0169 62.6801 9.30415 62.8438 6.70349H63.2181V13.9005H62.845C62.6801 11.0594 62.1508 10.3999 60.6559 10.3999H60.2097V19.7886H61.4121V20.1716H56.3793ZM65.5895 13.8373H68.443L67.0175 6.40972L65.5894 13.8386L65.5895 13.8373ZM63.15 19.7886H63.978L67.641 0.95801H68.8384L72.5026 19.7886H72.996V20.1716H68.3103V19.7886H69.5958L68.5124 14.2216H65.5176L64.4342 19.7886H65.9589V20.1716H63.1487V19.7886H63.15Z" fill="#0A212F"/>
<path fill-rule="evenodd" clip-rule="evenodd" d="M72.9961 20.1716V19.7886H73.7324V1.34227H72.9973V0.958H77.3049V1.34103H76.545V19.7873H77.3049V20.1704H72.9973M82.2732 1.34971V9.86691H82.6735C84.1152 9.86691 85.1552 9.93137 85.1552 6.31921V5.36225C85.1552 1.86042 84.1139 1.34971 82.8334 1.34971H82.2731H82.2732ZM84.9953 18.1102V13.2956C84.9953 10.7247 84.2751 10.2586 82.7801 10.2586H82.2719V20.2348H83.447V20.6278H78.537V20.2348H79.3118V1.34971H78.537V0.958H82.8347C85.9832 0.958 88.0124 2.43559 88.0124 5.79983C88.0124 8.755 86.2683 9.79378 84.0458 10.0677V10.095C86.3762 10.4508 87.9319 11.409 87.9319 14.8823V19.4601C87.9319 20.0625 88.1277 20.2261 88.4488 20.2261C88.662 20.2261 88.8579 20.153 89.0004 20.0985V20.4902C88.8392 20.6005 88.3335 20.7914 87.6393 20.7914C85.9845 20.7914 84.9965 20.1902 84.9965 18.1102H84.9953Z" fill="#0A212F"/>
</svg>
