<svg width="90" height="22" viewBox="0 0 90 22" fill="none" xmlns="http://www.w3.org/2000/svg">
<path d="M69.0887 4.86804H64.1553C63.819 4.86804 63.5304 5.1138 63.4784 5.44662L61.4836 18.096C61.4443 18.3452 61.6374 18.5706 61.8902 18.5706H64.4207C64.656 18.5706 64.8575 18.3993 64.894 18.1662L65.4606 14.5803C65.5126 14.2475 65.7998 14.0017 66.1375 14.0017H67.6984C70.948 14.0017 72.8228 12.4296 73.3129 9.3127C73.5333 7.94981 73.3227 6.87832 72.6837 6.12841C71.983 5.30338 70.7387 4.86804 69.0887 4.86804ZM69.6581 9.48753C69.3885 11.2584 68.0361 11.2584 66.728 11.2584H65.983L66.5054 7.95262C66.537 7.7525 66.7091 7.60505 66.9113 7.60505H67.2518C68.1429 7.60505 68.9841 7.60505 69.4173 8.11271C69.6771 8.41604 69.7564 8.86542 69.6581 9.48753Z" fill="#0070BA"/>
<path d="M33.9051 4.86914H28.9724C28.6347 4.86914 28.3475 5.1149 28.2948 5.44772L26.3 18.0971C26.2607 18.3463 26.4538 18.5717 26.7066 18.5717H29.0616C29.3986 18.5717 29.6858 18.3267 29.7385 17.9939L30.277 14.5814C30.3297 14.2486 30.6169 14.0028 30.9539 14.0028H32.5148C35.7637 14.0028 37.6392 12.4307 38.13 9.3138C38.3504 7.95091 38.1384 6.87942 37.5008 6.12951C36.7987 5.30448 35.5552 4.86914 33.9051 4.86914ZM34.4745 9.48863C34.2049 11.2595 32.8526 11.2595 31.5444 11.2595H30.8001L31.3218 7.95372C31.3534 7.7536 31.5262 7.60615 31.7284 7.60615H32.0696C32.96 7.60615 33.8012 7.60615 34.2344 8.11381C34.4935 8.41714 34.5721 8.86652 34.4745 9.48863Z" fill="#005EA6"/>
<path d="M48.6484 9.43145H46.287C46.0841 9.43145 45.9121 9.5782 45.8805 9.77831L45.7772 10.4383L45.6115 10.1989C45.1004 9.45602 43.9601 9.20886 42.8219 9.20886C40.2126 9.20886 37.9833 11.1861 37.5494 13.9597C37.3233 15.3436 37.6442 16.6658 38.4285 17.5891C39.1489 18.4373 40.1782 18.7898 41.4035 18.7898C43.5065 18.7898 44.6735 17.4388 44.6735 17.4388L44.5681 18.0954C44.5288 18.3446 44.7212 18.5707 44.974 18.5707H47.1015C47.4385 18.5707 47.7257 18.3257 47.7791 17.9936L49.0549 9.90681C49.0942 9.65614 48.9011 9.43145 48.6484 9.43145ZM45.3566 14.0285C45.1284 15.3787 44.057 16.2838 42.6906 16.2838C42.0053 16.2838 41.4569 16.0633 41.1044 15.6469C40.7547 15.2327 40.6234 14.6436 40.7343 13.9877C40.9471 12.6501 42.0361 11.7149 43.3822 11.7149C44.0527 11.7149 44.5969 11.9367 44.9571 12.3587C45.318 12.7828 45.4606 13.3762 45.3566 14.0285Z" fill="#005EA6"/>
<path d="M83.8336 9.43145H81.4723C81.2701 9.43145 81.098 9.5782 81.0664 9.77831L80.9625 10.4383L80.7975 10.1989C80.2856 9.45602 79.146 9.20886 78.0078 9.20886C75.3972 9.20886 73.1679 11.1861 72.7346 13.9597C72.5092 15.3436 72.8294 16.6658 73.6137 17.5891C74.3341 18.4373 75.3635 18.7898 76.5888 18.7898C78.6917 18.7898 79.8587 17.4388 79.8587 17.4388L79.7534 18.0954C79.7134 18.3446 79.9072 18.5707 80.1592 18.5707H82.2868C82.6231 18.5707 82.911 18.3257 82.9637 17.9936L84.2402 9.90681C84.2795 9.65614 84.0864 9.43145 83.8336 9.43145ZM80.5419 14.0285C80.3137 15.3787 79.2422 16.2838 77.8758 16.2838C77.1905 16.2838 76.6421 16.0633 76.289 15.6469C75.9407 15.2327 75.808 14.6436 75.9196 13.9877C76.1331 12.6501 77.2207 11.7149 78.5668 11.7149C79.238 11.7149 79.7822 11.9367 80.1417 12.3587C80.5033 12.7828 80.6458 13.3762 80.5419 14.0285Z" fill="#0070BA"/>
<path d="M61.2305 9.4314H58.8558C58.629 9.4314 58.4163 9.54374 58.2885 9.73122L55.0136 14.555L53.6247 9.9201C53.5384 9.6294 53.2708 9.4314 52.9682 9.4314H50.6342C50.3527 9.4314 50.1547 9.70875 50.2446 9.97487L52.8594 17.6487L50.4004 21.1181C50.208 21.3905 50.4032 21.7669 50.7368 21.7669H53.1094C53.3333 21.7669 53.544 21.6567 53.6725 21.472L61.5689 10.0767C61.7571 9.80354 61.5619 9.4314 61.2305 9.4314Z" fill="#005EA6"/>
<path d="M86.6175 5.21494L84.5932 18.0953C84.5531 18.3446 84.7462 18.57 84.999 18.57H87.0353C87.3723 18.57 87.6595 18.3249 87.7121 17.9928L89.7084 5.34273C89.7477 5.09347 89.5546 4.86737 89.3025 4.86737H87.0233C86.8218 4.86807 86.6491 5.01553 86.6175 5.21494Z" fill="#0070BA"/>
<path d="M16.6237 5.53019C16.8892 3.83659 16.6223 2.68435 15.706 1.64094C14.6977 0.492212 12.8763 0 10.5459 0H3.78059C3.30452 0 2.89868 0.346866 2.82425 0.817311L0.00719259 18.6802C-0.0482778 19.0334 0.224159 19.3515 0.580855 19.3515H4.75729L4.4687 21.1799C4.42025 21.4881 4.65898 21.7669 4.97144 21.7669H8.49206C8.90844 21.7669 9.26303 21.4635 9.32833 21.0521L9.36273 20.873L10.0256 16.6678L10.0684 16.4354C10.1337 16.0239 10.4883 15.7199 10.9047 15.7199H11.4313C14.8417 15.7199 17.512 14.3352 18.2921 10.3273C18.6186 8.65339 18.4501 7.25539 17.5878 6.27307C17.3266 5.97676 17.0022 5.73101 16.6237 5.53019Z" fill="#0070BA"/>
<path d="M16.6237 5.53019C16.8892 3.83659 16.6223 2.68435 15.706 1.64094C14.6977 0.492212 12.8763 0 10.5459 0H3.78059C3.30452 0 2.89868 0.346866 2.82425 0.817311L0.00719259 18.6802C-0.0482778 19.0334 0.224159 19.3515 0.580855 19.3515H4.75729L5.80631 12.6985L5.77401 12.9078C5.84844 12.4366 6.25007 12.0904 6.72684 12.0904H8.71183C12.6102 12.0904 15.6625 10.5064 16.5549 5.92621C16.5809 5.79069 16.6034 5.66009 16.6237 5.53019Z" fill="#1546A0"/>
<path d="M6.93397 5.55266C6.97821 5.26969 7.16007 5.03798 7.40442 4.92072C7.51536 4.86735 7.63964 4.83786 7.77024 4.83786H13.0736C13.7021 4.83786 14.2877 4.87929 14.8234 4.96566C14.9765 4.99023 15.1253 5.01832 15.27 5.05062C15.4146 5.08221 15.5551 5.11802 15.6913 5.15805C15.7594 5.17771 15.8261 5.19877 15.8921 5.22054C16.1554 5.30831 16.4005 5.41082 16.6251 5.53019C16.8906 3.83659 16.6237 2.68435 15.7074 1.64094C14.6977 0.492212 12.8763 0 10.5459 0H3.78059C3.30452 0 2.89868 0.346866 2.82425 0.817311L0.00719259 18.6802C-0.0482778 19.0334 0.224159 19.3515 0.580855 19.3515H4.75729L5.80631 12.6985L6.93397 5.55266Z" fill="#005EA6"/>
</svg>
