<svg width="39" height="27" viewBox="0 0 39 27" fill="none" xmlns="http://www.w3.org/2000/svg">
<path d="M17.3153 18.5174H14.7188L16.3428 9.06697H18.9392L17.3153 18.5174Z" fill="#15195A"/>
<path d="M26.7283 9.29801C26.2161 9.10679 25.4038 8.89566 24.3994 8.89566C21.8353 8.89566 20.0296 10.1825 20.0186 12.0222C19.9973 13.3796 21.3113 14.1335 22.2942 14.5861C23.2987 15.0485 23.6402 15.3504 23.6402 15.7626C23.63 16.3958 22.8285 16.6876 22.0809 16.6876C21.0443 16.6876 20.4888 16.5371 19.6447 16.1849L19.3028 16.0339L18.9395 18.1553C19.5484 18.4164 20.6704 18.6481 21.8353 18.6583C24.5597 18.6583 26.3334 17.3914 26.3544 15.4308C26.3648 14.355 25.6709 13.5307 24.1749 12.8571C23.2668 12.4247 22.7106 12.1331 22.7106 11.6907C22.7213 11.2885 23.181 10.8765 24.2062 10.8765C25.0503 10.8563 25.6705 11.0473 26.1403 11.2384L26.3752 11.3387L26.7283 9.29801Z" fill="#15195A"/>
<path fill-rule="evenodd" clip-rule="evenodd" d="M31.376 9.06697H33.3844L35.4792 18.5173H33.075C33.075 18.5173 32.8398 17.4315 32.7652 17.0997H29.4315C29.3351 17.3509 28.8866 18.5173 28.8866 18.5173H26.1621L30.0189 9.85108C30.2861 9.23774 30.7567 9.06697 31.376 9.06697ZM31.2158 12.5253C31.2158 12.5253 30.393 14.6266 30.1791 15.1695H32.3373C32.2306 14.697 31.7389 12.4349 31.7389 12.4349L31.5574 11.6206C31.481 11.8302 31.3705 12.1185 31.2959 12.313C31.2454 12.4448 31.2114 12.5335 31.2158 12.5253Z" fill="#15195A"/>
<path fill-rule="evenodd" clip-rule="evenodd" d="M10.008 15.5113L12.5508 9.06697H15.2964L11.2151 18.5074H8.4694L6.15524 10.2962C5.35657 9.8567 4.445 9.50321 3.42578 9.25793L3.46852 9.06698H7.64606C8.2123 9.08689 8.67177 9.25779 8.82129 9.86138L9.72784 14.1971C9.7286 14.1995 9.72935 14.2019 9.7301 14.2043L10.008 15.5113Z" fill="#15195A"/>
</svg>
