<svg width="26" height="26" viewBox="0 0 26 26" fill="none" xmlns="http://www.w3.org/2000/svg">
<path d="M9.75001 17.874H3.04688C2.88526 17.874 2.73026 17.8098 2.61598 17.6955C2.5017 17.5813 2.4375 17.4263 2.4375 17.2646V10.5615C2.4375 8.62211 3.20792 6.76215 4.57928 5.3908C5.95064 4.01944 7.81059 3.24902 9.74999 3.24902H9.75C11.6894 3.24902 13.5494 4.01945 14.9207 5.39081C16.2921 6.76216 17.0625 8.62213 17.0625 10.5615V10.5615C17.0625 12.5009 16.2921 14.3609 14.9207 15.7322C13.5494 17.1036 11.6894 17.874 9.75001 17.874V17.874Z" stroke="#2A2A2C" stroke-opacity="0.8" stroke-linecap="round" stroke-linejoin="round"/>
<path d="M9.35352 17.8743C9.85812 19.3001 10.7922 20.5343 12.0272 21.4073C13.2622 22.2803 14.7374 22.749 16.2498 22.749H22.9529C23.1146 22.749 23.2696 22.6848 23.3838 22.5706C23.4981 22.4563 23.5623 22.3013 23.5623 22.1397V15.4365C23.5623 13.5663 22.8457 11.7671 21.5599 10.409C20.2741 9.05089 18.5168 8.23703 16.6494 8.13477" stroke="#2A2A2C" stroke-opacity="0.8" stroke-linecap="round" stroke-linejoin="round"/>
</svg>
