<?xml version="1.0" encoding="utf-8"?>
<!-- Generator: Adobe Illustrator 16.0.0, SVG Export Plug-In . SVG Version: 6.00 Build 0)  -->
<!DOCTYPE svg PUBLIC "-//W3C//DTD SVG 1.1//EN" "http://www.w3.org/Graphics/SVG/1.1/DTD/svg11.dtd">
<svg version="1.1" id="Layer_1" xmlns="http://www.w3.org/2000/svg" xmlns:xlink="http://www.w3.org/1999/xlink" x="0px" y="0px"
	 width="22px" height="28px" viewBox="0 0 22 28" enable-background="new 0 0 22 28" xml:space="preserve">
<path fill="none" stroke="#0E9EEB" stroke-width="1.5" d="M12.7,1H6.727c-2.7,0-4.05,0-4.888,0.839C1,2.678,1,4.027,1,6.728v14.317
	c0,2.7,0,4.051,0.839,4.889c0.838,0.839,2.188,0.839,4.888,0.839h8.591c2.699,0,4.05,0,4.889-0.839
	c0.838-0.838,0.838-2.188,0.838-4.889v-11.7c0-0.585,0-0.878-0.108-1.141s-0.315-0.47-0.729-0.884l-5.482-5.481
	c-0.413-0.414-0.62-0.621-0.883-0.73C13.578,1,13.285,1,12.7,1z"/>
<path fill="none" stroke="#0E9EEB" stroke-width="1.5" d="M12.453,1v5.728c0,1.35,0,2.024,0.42,2.444
	c0.419,0.419,1.094,0.419,2.443,0.419h5.728"/>
</svg>
