<svg width="23" height="28" viewBox="0 0 23 28" fill="none" xmlns="http://www.w3.org/2000/svg">
<path d="M18.4244 14.6023C18.4244 15.7885 17.4628 16.75 16.2766 16.75C15.0905 16.75 14.1289 15.7885 14.1289 14.6023C14.1289 13.4162 15.0905 12.4546 16.2766 12.4546C17.4628 12.4546 18.4244 13.4162 18.4244 14.6023Z" fill="#0A212F"/>
<path fill-rule="evenodd" clip-rule="evenodd" d="M4.16336 19.7366C5.17063 18.5495 5.87183 17.7261 6.45703 17.2131C7.03682 16.7048 7.33883 16.6487 7.56494 16.6893C7.79106 16.7298 8.05476 16.8873 8.42183 17.5654C8.79233 18.2498 9.16379 19.2655 9.69584 20.7286L9.89762 21.2835L9.91406 21.3287L9.91407 21.3287C10.1174 21.8881 10.294 22.3739 10.4795 22.7352C10.6701 23.1066 10.9479 23.5078 11.4391 23.6857C11.626 23.7534 11.8231 23.7887 12.0219 23.7902C12.5443 23.7941 12.9442 23.5143 13.252 23.2323C13.5514 22.9579 13.8858 22.5637 14.2709 22.1099L14.302 22.0732C14.9037 21.3641 15.3124 20.8843 15.6606 20.5613C15.9986 20.2476 16.1973 20.162 16.3562 20.1395C16.4728 20.1229 16.5912 20.1229 16.7078 20.1395C16.8667 20.162 17.0654 20.2476 17.4034 20.5613C17.7516 20.8843 18.1603 21.3641 18.762 22.0732L20.8086 24.4853L21.9524 23.5148L19.9058 21.1028L19.8754 21.0669C19.3118 20.4027 18.8455 19.8531 18.4237 19.4617C17.9842 19.0539 17.512 18.7387 16.9187 18.6544C16.6622 18.6179 16.4018 18.6179 16.1453 18.6544C15.5519 18.7387 15.0798 19.0539 14.6403 19.4617C14.2185 19.8531 13.7522 20.4027 13.1886 21.0669L13.1582 21.1028C12.733 21.604 12.4597 21.9237 12.2386 22.1264C12.1102 22.244 12.043 22.2801 12.0201 22.2898C12.0004 22.2886 11.9809 22.2851 11.9621 22.2794C11.9439 22.2623 11.8935 22.2052 11.814 22.0502C11.677 21.7834 11.5319 21.3886 11.3073 20.7709L11.1055 20.216L11.0833 20.1547C10.5788 18.7674 10.1708 17.6454 9.74095 16.8513C9.30132 16.0392 8.73674 15.3755 7.82968 15.2128C6.92262 15.0502 6.1626 15.4764 5.46821 16.0852C4.78921 16.6804 4.01682 17.5908 3.06181 18.7164L3.0618 18.7164L3.0196 18.7661L0.808594 21.372L1.95236 22.3424L4.16336 19.7366ZM12.0109 22.2929C12.0109 22.2928 12.0125 22.2922 12.0154 22.2917C12.0123 22.2928 12.0109 22.2931 12.0109 22.2929ZM11.9696 22.2855C11.9696 22.2857 11.9684 22.2849 11.9659 22.2828C11.9684 22.2843 11.9696 22.2854 11.9696 22.2855Z" fill="#0A212F"/>
<path d="M12.9424 1H6.96946C4.2696 1 2.91967 1 2.08093 1.83874C1.24219 2.67748 1.24219 4.02741 1.24219 6.72727V21.0455C1.24219 23.7453 1.24219 25.0952 2.08093 25.934C2.91967 26.7727 4.2696 26.7727 6.96946 26.7727H15.5604C18.2602 26.7727 19.6102 26.7727 20.4489 25.934C21.2876 25.0952 21.2876 23.7453 21.2876 21.0455V9.34525C21.2876 8.75999 21.2876 8.46736 21.1786 8.20424C21.0697 7.94111 20.8627 7.73419 20.4489 7.32035L14.9673 1.83874C14.5535 1.4249 14.3465 1.21798 14.0834 1.10899C13.8203 1 13.5276 1 12.9424 1Z" stroke="#0A212F" stroke-width="1.5"/>
<path d="M12.6992 1V6.72727C12.6992 8.0772 12.6992 8.75217 13.1186 9.17154C13.538 9.59091 14.2129 9.59091 15.5629 9.59091H21.2901" stroke="#0A212F" stroke-width="1.5"/>
</svg>
