<?xml version="1.0" encoding="utf-8"?>
<!-- Generator: Adobe Illustrator 16.0.0, SVG Export Plug-In . SVG Version: 6.00 Build 0)  -->
<!DOCTYPE svg PUBLIC "-//W3C//DTD SVG 1.1//EN" "http://www.w3.org/Graphics/SVG/1.1/DTD/svg11.dtd">
<svg version="1.1" id="Layer_1" xmlns="http://www.w3.org/2000/svg" xmlns:xlink="http://www.w3.org/1999/xlink" x="0px" y="0px"
	 width="22px" height="28px" viewBox="0 0 22 28" enable-background="new 0 0 22 28" xml:space="preserve">
<path fill="none" stroke="#0E9EEB" stroke-width="1.5" d="M12.544,1H6.651C3.987,1,2.655,1,1.828,1.828S1,3.987,1,6.651v14.126
	c0,2.664,0,3.996,0.828,4.824c0.828,0.827,2.159,0.827,4.823,0.827h8.476c2.664,0,3.996,0,4.823-0.827
	c0.827-0.828,0.827-2.16,0.827-4.824V9.234c0-0.578,0-0.866-0.107-1.126c-0.107-0.259-0.312-0.463-0.72-0.872l-5.408-5.408
	c-0.409-0.408-0.612-0.613-0.872-0.72S13.121,1,12.544,1z"/>
<path fill="none" stroke="#0E9EEB" stroke-width="1.5" d="M12.301,1v5.651c0,1.332,0,1.998,0.414,2.412
	c0.414,0.414,1.08,0.414,2.411,0.414h5.651"/>
<path fill="none" stroke="#0E9EEB" stroke-width="1.5" stroke-linecap="round" d="M8.063,19.365l5.65-5.651"/>
<path fill="none" stroke="#0E9EEB" stroke-width="1.5" stroke-linecap="round" d="M13.715,17.952v-4.238"/>
<path fill="none" stroke="#0E9EEB" stroke-width="1.5" stroke-linecap="round" d="M9.477,13.714h4.238"/>
</svg>
