<?xml version="1.0" encoding="utf-8"?>
<!-- Generator: Adobe Illustrator 16.0.0, SVG Export Plug-In . SVG Version: 6.00 Build 0)  -->
<!DOCTYPE svg PUBLIC "-//W3C//DTD SVG 1.1//EN" "http://www.w3.org/Graphics/SVG/1.1/DTD/svg11.dtd">
<svg version="1.1" id="Layer_1" xmlns="http://www.w3.org/2000/svg" xmlns:xlink="http://www.w3.org/1999/xlink" x="0px" y="0px"
	 width="22px" height="27.5px" viewBox="0 0 22 27.5" enable-background="new 0 0 22 27.5" xml:space="preserve">
<path fill="none" stroke="#0E9EEB" stroke-width="1.5" d="M12.7,1H6.727c-2.7,0-4.05,0-4.888,0.839C1,2.678,1,4.027,1,6.728v14.317
	c0,2.7,0,4.051,0.839,4.889c0.838,0.839,2.188,0.839,4.888,0.839h8.591c2.699,0,4.05,0,4.889-0.839
	c0.838-0.838,0.838-2.188,0.838-4.889v-11.7c0-0.585,0-0.878-0.108-1.141s-0.315-0.47-0.729-0.884l-5.482-5.481
	c-0.413-0.414-0.62-0.621-0.883-0.73C13.578,1,13.285,1,12.7,1z"/>
<path fill="none" stroke="#0E9EEB" stroke-width="1.5" d="M12.453,1v5.728c0,1.35,0,2.024,0.42,2.444
	c0.419,0.419,1.094,0.419,2.443,0.419h5.728"/>
<path fill="none" stroke="#0E9EEB" stroke-width="1.5" d="M7.049,19.077l0.65,0.368L7.049,19.077
	c-0.119,0.21-0.176,0.44-0.229,0.654c-0.004,0.018-0.009,0.034-0.013,0.052l-0.247,0.988c-0.003,0.01-0.005,0.021-0.008,0.031
	c-0.038,0.15-0.084,0.336-0.1,0.496c-0.018,0.18-0.02,0.537,0.27,0.826c0.289,0.289,0.646,0.287,0.826,0.27
	c0.16-0.016,0.345-0.063,0.496-0.1c0.011-0.003,0.021-0.006,0.032-0.008l0.988-0.247c0.017-0.005,0.034-0.009,0.052-0.013
	c0.214-0.054,0.444-0.11,0.654-0.229l-0.369-0.653l0.369,0.653c0.21-0.119,0.378-0.287,0.533-0.443
	c0.013-0.013,0.025-0.025,0.038-0.038l3.983-3.982l0,0c0.002-0.002,0.002-0.003,0.004-0.004c0.01-0.01,0.02-0.02,0.029-0.029
	c0.122-0.121,0.249-0.248,0.344-0.387c0.405-0.595,0.405-1.378,0-1.973c-0.095-0.138-0.222-0.265-0.344-0.387
	c-0.012-0.011-0.021-0.021-0.033-0.032l0,0c-0.01-0.011-0.021-0.021-0.031-0.032c-0.123-0.122-0.25-0.25-0.387-0.343
	c-0.596-0.406-1.379-0.406-1.974,0c-0.138,0.094-0.265,0.221-0.386,0.343c-0.012,0.011-0.021,0.021-0.033,0.032l-3.983,3.983
	c-0.013,0.013-0.025,0.025-0.038,0.038C7.336,18.699,7.168,18.867,7.049,19.077z"/>
<path fill="#0E9EEB" d="M11.461,15.053l1.75-1.166l1.75,1.75l-1.166,1.75L11.461,15.053z"/>
</svg>
