<svg width="22" height="28" viewBox="0 0 22 28" fill="none" xmlns="http://www.w3.org/2000/svg">
<path d="M12.7002 1H6.72727C4.02741 1 2.67748 1 1.83874 1.83874C1 2.67748 1 4.02741 1 6.72727V21.0455C1 23.7453 1 25.0952 1.83874 25.934C2.67748 26.7727 4.02741 26.7727 6.72727 26.7727H15.3182C18.018 26.7727 19.368 26.7727 20.2067 25.934C21.0455 25.0952 21.0455 23.7453 21.0455 21.0455V9.34525C21.0455 8.75999 21.0455 8.46736 20.9365 8.20424C20.8275 7.94111 20.6206 7.73419 20.2067 7.32035L14.7251 1.83874C14.3113 1.4249 14.1043 1.21798 13.8412 1.10899C13.5781 1 13.2855 1 12.7002 1Z" stroke="#0A212F" stroke-width="1.5"/>
<path d="M12.4531 1V6.72727C12.4531 8.0772 12.4531 8.75217 12.8725 9.17154C13.2919 9.59091 13.9668 9.59091 15.3168 9.59091H21.044" stroke="#0A212F" stroke-width="1.5"/>
</svg>
