<svg width="22" height="22" viewBox="0 0 22 22" fill="none" xmlns="http://www.w3.org/2000/svg">
<path d="M13.7495 6.87457L6.59023 14.1527C6.33237 14.4106 6.1875 14.7603 6.1875 15.125C6.1875 15.4897 6.33237 15.8394 6.59023 16.0973C6.84809 16.3551 7.19783 16.5 7.5625 16.5C7.92717 16.5 8.27691 16.3551 8.53477 16.0973L17.069 7.44412C17.3244 7.18875 17.527 6.8856 17.6652 6.55195C17.8034 6.21831 17.8745 5.86071 17.8745 5.49957C17.8745 5.13844 17.8034 4.78084 17.6652 4.44719C17.527 4.11355 17.3244 3.81039 17.069 3.55503C16.8137 3.29967 16.5105 3.0971 16.1769 2.9589C15.8432 2.8207 15.4856 2.74957 15.1245 2.74957C14.7634 2.74957 14.4058 2.8207 14.0721 2.9589C13.7385 3.0971 13.4353 3.29967 13.18 3.55503L4.64568 12.2082C3.8721 12.9818 3.4375 14.031 3.4375 15.125C3.4375 16.219 3.8721 17.2682 4.64568 18.0418C5.41927 18.8154 6.46848 19.25 7.5625 19.25C8.65652 19.25 9.70573 18.8154 10.4793 18.0418L17.5307 10.9996" stroke="#2A2A2C" stroke-width="1.5" stroke-linecap="round" stroke-linejoin="round"/>
</svg>
