<?xml version="1.0" encoding="utf-8"?>
<!-- Generator: Adobe Illustrator 16.0.0, SVG Export Plug-In . SVG Version: 6.00 Build 0)  -->
<!DOCTYPE svg PUBLIC "-//W3C//DTD SVG 1.1//EN" "http://www.w3.org/Graphics/SVG/1.1/DTD/svg11.dtd">
<svg version="1.1" id="Layer_1" xmlns="http://www.w3.org/2000/svg" xmlns:xlink="http://www.w3.org/1999/xlink" x="0px" y="0px"
	 width="22px" height="28px" viewBox="0 0 22 28" enable-background="new 0 0 22 28" xml:space="preserve">
<path fill="none" stroke="#0E9EEB" stroke-width="1.5" d="M12.674,1H6.714C4.021,1,2.674,1,1.837,1.837S1,4.021,1,6.714V21
	c0,2.693,0,4.041,0.837,4.877c0.837,0.838,2.184,0.838,4.877,0.838h8.571c2.694,0,4.041,0,4.878-0.838C21,25.041,21,23.693,21,21
	V9.326c0-0.584,0-0.876-0.109-1.138c-0.107-0.263-0.314-0.469-0.728-0.882l-5.47-5.469c-0.412-0.413-0.619-0.62-0.881-0.728
	C13.55,1,13.258,1,12.674,1z"/>
<path fill="none" stroke="#0E9EEB" stroke-width="1.5" stroke-linecap="round" d="M6.715,15.285h8.571"/>
<path fill="none" stroke="#0E9EEB" stroke-width="1.5" stroke-linecap="round" d="M6.715,21h5.715"/>
<path fill="none" stroke="#0E9EEB" stroke-width="1.5" d="M12.43,1v5.714c0,1.347,0,2.02,0.418,2.438
	c0.419,0.418,1.092,0.418,2.439,0.418h5.714"/>
</svg>
