<svg width="22" height="28" viewBox="0 0 22 28" fill="none" xmlns="http://www.w3.org/2000/svg">
<path d="M12.6737 1H6.71429C4.02055 1 2.67368 1 1.83684 1.83684C1 2.67368 1 4.02055 1 6.71429V21C1 23.6937 1 25.0406 1.83684 25.8774C2.67368 26.7143 4.02055 26.7143 6.71429 26.7143H15.2857C17.9795 26.7143 19.3263 26.7143 20.1632 25.8774C21 25.0406 21 23.6937 21 21V9.32632C21 8.74239 21 8.45043 20.8913 8.1879C20.7825 7.92537 20.5761 7.71892 20.1632 7.30602L14.694 1.83684C14.2811 1.42394 14.0746 1.21749 13.8121 1.10874C13.5496 1 13.2576 1 12.6737 1Z" stroke="#0A212F" stroke-width="1.5"/>
<path d="M6.71484 15.2856L15.2863 15.2856" stroke="#0A212F" stroke-width="1.5" stroke-linecap="round"/>
<path d="M6.71484 21L12.4291 21" stroke="#0A212F" stroke-width="1.5" stroke-linecap="round"/>
<path d="M12.4297 1V6.71429C12.4297 8.06116 12.4297 8.73459 12.8481 9.15301C13.2665 9.57143 13.94 9.57143 15.2868 9.57143H21.0011" stroke="#0A212F" stroke-width="1.5"/>
</svg>
