<?xml version="1.0" encoding="utf-8"?>
<!-- Generator: Adobe Illustrator 16.0.0, SVG Export Plug-In . SVG Version: 6.00 Build 0)  -->
<!DOCTYPE svg PUBLIC "-//W3C//DTD SVG 1.1//EN" "http://www.w3.org/Graphics/SVG/1.1/DTD/svg11.dtd">
<svg version="1.1" id="Layer_1" xmlns="http://www.w3.org/2000/svg" xmlns:xlink="http://www.w3.org/1999/xlink" x="0px" y="0px"
	 width="22px" height="28px" viewBox="0 0 22 28" enable-background="new 0 0 22 28" xml:space="preserve">
<path fill="none" stroke="#0E9EEB" stroke-width="1.5" d="M12.7,1H6.727c-2.7,0-4.05,0-4.888,0.839C1,2.678,1,4.027,1,6.728v14.317
	c0,2.7,0,4.051,0.839,4.889c0.838,0.839,2.188,0.839,4.888,0.839h8.591c2.699,0,4.05,0,4.889-0.839
	c0.838-0.838,0.838-2.188,0.838-4.889v-11.7c0-0.585,0-0.878-0.108-1.141s-0.315-0.47-0.729-0.884l-5.482-5.481
	c-0.413-0.414-0.62-0.621-0.883-0.73C13.578,1,13.285,1,12.7,1z"/>
<path fill="#0E9EEB" d="M9.122,14.912l-0.295,0.689l0,0L9.122,14.912z M13.679,16.865l0.296-0.689L13.679,16.865z M13.679,19.498
	l0.296,0.689L13.679,19.498z M9.122,21.451l-0.295-0.689l0,0L9.122,21.451z M8.826,15.602l4.557,1.953l0.592-1.379l-4.558-1.952
	L8.826,15.602z M13.383,18.809l-4.557,1.953l0.591,1.379l4.558-1.953L13.383,18.809z M5.977,16.492v3.379h1.5v-3.379H5.977z
	 M8.826,20.762c-0.639,0.273-1.35-0.195-1.35-0.891h-1.5c0,1.772,1.812,2.967,3.44,2.27L8.826,20.762z M13.383,17.555
	c0.551,0.236,0.551,1.018,0,1.254l0.592,1.379c1.763-0.756,1.763-3.256,0-4.012L13.383,17.555z M9.417,14.224
	c-1.629-0.698-3.44,0.497-3.44,2.269h1.5c0-0.695,0.711-1.164,1.35-0.891L9.417,14.224z"/>
<path fill="none" stroke="#0E9EEB" stroke-width="1.5" d="M12.453,1v5.728c0,1.35,0,2.024,0.42,2.444
	c0.419,0.419,1.094,0.419,2.443,0.419h5.728"/>
</svg>
