<?xml version="1.0" encoding="utf-8"?>
<!-- Generator: Adobe Illustrator 16.0.0, SVG Export Plug-In . SVG Version: 6.00 Build 0)  -->
<!DOCTYPE svg PUBLIC "-//W3C//DTD SVG 1.1//EN" "http://www.w3.org/Graphics/SVG/1.1/DTD/svg11.dtd">
<svg version="1.1" id="Layer_1" xmlns="http://www.w3.org/2000/svg" xmlns:xlink="http://www.w3.org/1999/xlink" x="0px" y="0px"
	 width="23px" height="28px" viewBox="0 0 23 28" enable-background="new 0 0 23 28" xml:space="preserve">
<path fill="#0E9EEB" d="M18.424,14.603c0,1.187-0.961,2.147-2.147,2.147s-2.147-0.961-2.147-2.147s0.961-2.148,2.147-2.148
	S18.424,13.416,18.424,14.603z"/>
<path fill="#0E9EEB" d="M4.164,19.736c1.007-1.188,1.708-2.01,2.293-2.523c0.58-0.508,0.882-0.564,1.108-0.523
	s0.49,0.197,0.857,0.876c0.371,0.685,0.742,1.7,1.274,3.163l0.202,0.555l0.017,0.045l0,0c0.203,0.561,0.38,1.046,0.565,1.407
	c0.19,0.371,0.468,0.772,0.959,0.95c0.187,0.068,0.384,0.104,0.583,0.104c0.523,0.004,0.923-0.276,1.23-0.558
	c0.299-0.274,0.634-0.669,1.02-1.123l0.03-0.036c0.603-0.709,1.011-1.188,1.358-1.512c0.338-0.313,0.537-0.399,0.696-0.422
	c0.116-0.017,0.235-0.017,0.352,0c0.159,0.022,0.357,0.108,0.695,0.422c0.349,0.323,0.757,0.803,1.358,1.512l2.047,2.412
	l1.145-0.971l-2.047-2.412l-0.031-0.036c-0.563-0.664-1.029-1.213-1.451-1.604c-0.439-0.408-0.912-0.724-1.505-0.808
	c-0.257-0.036-0.517-0.036-0.773,0c-0.594,0.084-1.065,0.399-1.505,0.808c-0.422,0.392-0.889,0.94-1.452,1.604l-0.03,0.036
	c-0.426,0.501-0.699,0.821-0.92,1.024c-0.128,0.117-0.195,0.153-0.219,0.163c-0.02-0.001-0.039-0.005-0.058-0.011
	c-0.018-0.018-0.068-0.074-0.148-0.229c-0.137-0.268-0.282-0.662-0.507-1.279l-0.202-0.556l-0.022-0.062
	c-0.505-1.387-0.913-2.509-1.343-3.303c-0.439-0.813-1.004-1.477-1.911-1.639c-0.907-0.162-1.667,0.264-2.361,0.872
	c-0.679,0.596-1.452,1.506-2.406,2.632l0,0L3.02,18.766l-2.211,2.606l1.144,0.97L4.164,19.736z M12.011,22.293
	c0,0,0.002-0.001,0.005-0.002C12.012,22.293,12.011,22.293,12.011,22.293z M11.97,22.285c0,0-0.001,0-0.004-0.002
	C11.968,22.284,11.97,22.285,11.97,22.285z"/>
<path fill="none" stroke="#0E9EEB" stroke-width="1.5" d="M12.942,1H6.969c-2.7,0-4.05,0-4.888,0.839
	C1.242,2.678,1.242,4.027,1.242,6.728v14.317c0,2.7,0,4.051,0.839,4.889c0.838,0.839,2.188,0.839,4.888,0.839h8.591
	c2.699,0,4.05,0,4.889-0.839c0.838-0.838,0.838-2.188,0.838-4.889v-11.7c0-0.585,0-0.878-0.108-1.141s-0.315-0.47-0.729-0.884
	l-5.482-5.481c-0.413-0.414-0.62-0.621-0.883-0.73C13.82,1,13.527,1,12.942,1z"/>
<path fill="none" stroke="#0E9EEB" stroke-width="1.5" d="M12.699,1v5.728c0,1.35,0,2.024,0.42,2.444
	c0.419,0.419,1.094,0.419,2.443,0.419h5.728"/>
</svg>
