<svg width="51" height="51" viewBox="0 0 51 51" fill="none" xmlns="http://www.w3.org/2000/svg">
<path d="M47.9555 24.2618L43.0312 26.7239L36.6562 14.5154L41.6306 12.0282C42.0043 11.8414 42.4365 11.8087 42.834 11.9374C43.2316 12.066 43.5627 12.3456 43.7561 12.716L48.6555 22.0986C48.7534 22.2862 48.813 22.4915 48.8308 22.7024C48.8486 22.9133 48.8242 23.1256 48.7591 23.327C48.6939 23.5284 48.5893 23.7147 48.4513 23.8752C48.3133 24.0357 48.1448 24.1672 47.9555 24.2618V24.2618Z" stroke="#0A212F" stroke-width="2" stroke-linecap="round" stroke-linejoin="round"/>
<path d="M7.9688 26.5104L3.04458 24.0483C2.85527 23.9536 2.68671 23.8222 2.54874 23.6617C2.41077 23.5012 2.30615 23.3149 2.24099 23.1135C2.17583 22.9121 2.15143 22.6998 2.16921 22.4889C2.187 22.278 2.24662 22.0727 2.34458 21.8851L7.24396 12.5025C7.43736 12.1321 7.76848 11.8525 8.16602 11.7239C8.56356 11.5952 8.99572 11.6278 9.36945 11.8147L14.3438 14.3019L7.9688 26.5104Z" stroke="#0A212F" stroke-width="2" stroke-linecap="round" stroke-linejoin="round"/>
<path d="M43.0312 26.7239L39.8438 30.4529L32.5131 37.7836C32.3185 37.9782 32.0768 38.1191 31.8115 38.1925C31.5463 38.266 31.2666 38.2695 30.9996 38.2028L19.4535 35.3163C19.2369 35.2621 19.0341 35.1631 18.8583 35.0256L7.96875 26.5104" stroke="#0A212F" stroke-width="2" stroke-linecap="round" stroke-linejoin="round"/>
<path d="M39.8432 30.4529L31.0776 24.0779L28.5276 25.9904C27.4241 26.818 26.0819 27.2654 24.7026 27.2654C23.3232 27.2654 21.9811 26.818 20.8776 25.9904L19.7977 25.1805C19.615 25.0435 19.4639 24.8688 19.3546 24.6683C19.2453 24.4678 19.1804 24.2462 19.1642 24.0184C19.148 23.7907 19.1809 23.5621 19.2608 23.3482C19.3406 23.1342 19.4655 22.94 19.627 22.7785L27.4233 14.9822C27.5713 14.8342 27.747 14.7168 27.9403 14.6367C28.1337 14.5566 28.3409 14.5154 28.5502 14.5154H36.6557" stroke="#0A212F" stroke-width="2" stroke-linecap="round" stroke-linejoin="round"/>
<path d="M14.4585 14.3019L24.6824 11.3212C25.0476 11.2148 25.4389 11.2425 25.7855 11.3993L32.6722 14.5154" stroke="#0A212F" stroke-width="2" stroke-linecap="round" stroke-linejoin="round"/>
<path d="M22.3125 42.406L16.3082 40.9049C16.0645 40.844 15.8387 40.7264 15.6491 40.5616L11.1562 36.6562" stroke="#0A212F" stroke-width="2" stroke-linecap="round" stroke-linejoin="round"/>
</svg>
