<svg width="23" height="23" viewBox="0 0 23 23" fill="none" xmlns="http://www.w3.org/2000/svg">
<path d="M7.1875 3.59375H4.3125C3.91555 3.59375 3.59375 3.91555 3.59375 4.3125V18.6875C3.59375 19.0845 3.91555 19.4062 4.3125 19.4062H7.1875C7.58445 19.4062 7.90625 19.0845 7.90625 18.6875V4.3125C7.90625 3.91555 7.58445 3.59375 7.1875 3.59375Z" stroke="black" stroke-width="1.5" stroke-linecap="round" stroke-linejoin="round"/>
<path d="M3.59375 7.1875H7.90625" stroke="black" stroke-width="1.5" stroke-linecap="round" stroke-linejoin="round"/>
<path d="M11.5 3.59375H8.625C8.22805 3.59375 7.90625 3.91555 7.90625 4.3125V18.6875C7.90625 19.0845 8.22805 19.4062 8.625 19.4062H11.5C11.897 19.4062 12.2188 19.0845 12.2188 18.6875V4.3125C12.2188 3.91555 11.897 3.59375 11.5 3.59375Z" stroke="black" stroke-width="1.5" stroke-linecap="round" stroke-linejoin="round"/>
<path d="M7.90625 15.8125H12.2188" stroke="black" stroke-width="1.5" stroke-linecap="round" stroke-linejoin="round"/>
<path d="M15.694 3.36381L12.9169 4.10792C12.5335 4.21066 12.3059 4.60478 12.4087 4.98821L16.1292 18.8735C16.232 19.2569 16.6261 19.4844 17.0095 19.3817L19.7866 18.6376C20.17 18.5348 20.3975 18.1407 20.2948 17.7573L16.5743 3.87205C16.4715 3.48862 16.0774 3.26107 15.694 3.36381Z" stroke="black" stroke-width="1.5" stroke-linecap="round" stroke-linejoin="round"/>
<path d="M15.385 16.0966L19.5506 14.9805" stroke="black" stroke-width="1.5" stroke-linecap="round" stroke-linejoin="round"/>
<path d="M13.1526 7.76557L17.3181 6.64941" stroke="black" stroke-width="1.5" stroke-linecap="round" stroke-linejoin="round"/>
</svg>
