<svg width="23" height="23" viewBox="0 0 23 23" fill="none" xmlns="http://www.w3.org/2000/svg">
<path d="M21.0834 11.5H15.3334L13.4167 14.375H9.58341L7.66675 11.5H1.91675" stroke="#0A212F" stroke-width="1.5" stroke-linecap="round" stroke-linejoin="round"/>
<path d="M5.223 4.89676L1.91675 11.4997V17.2497C1.91675 17.758 2.11868 18.2455 2.47813 18.605C2.83757 18.9644 3.32508 19.1663 3.83341 19.1663H19.1667C19.6751 19.1663 20.1626 18.9644 20.522 18.605C20.8815 18.2455 21.0834 17.758 21.0834 17.2497V11.4997L17.7772 4.89676C17.6185 4.57743 17.3739 4.3087 17.0708 4.12078C16.7678 3.93285 16.4183 3.8332 16.0617 3.83301H6.93841C6.58183 3.8332 6.23238 3.93285 5.92933 4.12078C5.62629 4.3087 5.38168 4.57743 5.223 4.89676V4.89676Z" stroke="#0A212F" stroke-width="1.5" stroke-linecap="round" stroke-linejoin="round"/>
</svg>
