<svg width="23" height="23" viewBox="0 0 23 23" fill="none" xmlns="http://www.w3.org/2000/svg">
<path d="M11.5 20.125C16.2635 20.125 20.125 16.2635 20.125 11.5C20.125 6.73654 16.2635 2.875 11.5 2.875C6.73654 2.875 2.875 6.73654 2.875 11.5C2.875 16.2635 6.73654 20.125 11.5 20.125Z" stroke="#0A212F" stroke-width="1.5" stroke-linecap="round" stroke-linejoin="round"/>
<path d="M15.8125 18.9715V15.8125L11.5 6.46875L7.1875 15.8125V18.9718" stroke="#0A212F" stroke-width="1.5" stroke-linecap="round" stroke-linejoin="round"/>
<path d="M11.5 17.25C11.5 16.6781 11.7272 16.1297 12.1316 15.7253C12.5359 15.3209 13.0844 15.0938 13.6562 15.0938C14.2281 15.0938 14.7766 15.3209 15.1809 15.7253C15.5853 16.1297 15.8125 16.6781 15.8125 17.25" stroke="#0A212F" stroke-width="1.5" stroke-linecap="round" stroke-linejoin="round"/>
<path d="M11.5 20.125V17.25C11.5 16.6781 11.2728 16.1297 10.8684 15.7253C10.4641 15.3209 9.91562 15.0938 9.34375 15.0938C8.77188 15.0938 8.22343 15.3209 7.81905 15.7253C7.41468 16.1297 7.1875 16.6781 7.1875 17.25" stroke="#0A212F" stroke-width="1.5" stroke-linecap="round" stroke-linejoin="round"/>
<path d="M9.17798 11.5H13.8222" stroke="#0A212F" stroke-width="1.5" stroke-linecap="round" stroke-linejoin="round"/>
</svg>
