<?xml version="1.0" encoding="utf-8"?>
<!-- Generator: Adobe Illustrator 16.0.0, SVG Export Plug-In . SVG Version: 6.00 Build 0)  -->
<!DOCTYPE svg PUBLIC "-//W3C//DTD SVG 1.1//EN" "http://www.w3.org/Graphics/SVG/1.1/DTD/svg11.dtd">
<svg version="1.1" id="Layer_1" xmlns="http://www.w3.org/2000/svg" xmlns:xlink="http://www.w3.org/1999/xlink" x="0px" y="0px"
	 width="135px" height="25px" viewBox="0.168 -0.916 135 25" enable-background="new 0.168 -0.916 135 25" xml:space="preserve">
<path fill="#0A212F" d="M49.284,8.765h3.941V19.68h3.736V8.763h3.921V5.485H49.284v3.278 M74.826,7.306
	c-0.692-0.658-1.507-1.171-2.399-1.511c-0.958-0.367-1.978-0.551-3.002-0.543c-1.084,0-2.099,0.183-3.015,0.543
	c-0.915,0.36-1.723,0.867-2.398,1.511c-0.687,0.655-1.229,1.444-1.595,2.319c-0.389,0.94-0.584,1.95-0.574,2.968
	c0,1.073,0.193,2.071,0.574,2.967c0.366,0.876,0.908,1.665,1.595,2.321c0.693,0.653,1.51,1.167,2.398,1.51
	c0.916,0.36,1.931,0.543,3.015,0.543c1.068,0,2.078-0.183,3.001-0.543c0.892-0.34,1.708-0.854,2.4-1.512
	c0.679-0.657,1.218-1.446,1.583-2.319c0.381-0.896,0.573-1.895,0.573-2.967s-0.191-2.07-0.573-2.968
	C76.044,8.752,75.505,7.964,74.826,7.306 M70.971,16.299c-0.463,0.207-0.982,0.313-1.547,0.313c-0.579,0-1.106-0.105-1.567-0.313
	c-0.45-0.197-0.853-0.488-1.184-0.852c-0.331-0.371-0.588-0.801-0.758-1.269c-0.184-0.508-0.274-1.045-0.271-1.586
	c0-0.566,0.091-1.101,0.271-1.585c0.18-0.483,0.435-0.912,0.758-1.269c0.324-0.36,0.722-0.645,1.184-0.852
	c0.461-0.207,0.988-0.312,1.568-0.312c0.563,0,1.083,0.105,1.546,0.312c0.46,0.207,0.859,0.492,1.184,0.852
	c0.324,0.358,0.577,0.785,0.757,1.269c0.18,0.485,0.271,1.019,0.271,1.585s-0.091,1.1-0.271,1.586
	c-0.18,0.482-0.435,0.909-0.757,1.269C71.83,15.805,71.433,16.092,70.971,16.299z M90.665,7.378c-0.705-0.624-1.525-1.1-2.417-1.404
	c-0.929-0.325-1.962-0.489-3.069-0.489H79.23V19.68h5.97c1.095,0,2.12-0.164,3.047-0.489c0.894-0.304,1.717-0.786,2.418-1.416
	c0.683-0.624,1.227-1.386,1.593-2.234c0.381-0.87,0.573-1.868,0.573-2.969s-0.192-2.1-0.573-2.968
	C91.893,8.756,91.35,7.997,90.665,7.378z M89.029,12.572c0.003,0.501-0.086,0.998-0.26,1.468c-0.166,0.451-0.42,0.865-0.747,1.217
	c-0.322,0.344-0.728,0.624-1.204,0.831c-0.475,0.207-1.024,0.313-1.631,0.313h-2.22V8.765h2.241c0.636,0,1.199,0.099,1.675,0.292
	c0.474,0.191,0.876,0.465,1.191,0.81c0.317,0.343,0.557,0.749,0.714,1.205C88.95,11.527,89.029,12.032,89.029,12.572 M103.056,5.485
	h-4.631l-5.303,14.119l-0.029,0.076h4.232l0.695-2.027h5.462l0.695,2.027h4.231L103.07,5.521L103.056,5.485z M102.453,14.372h-3.426
	l1.713-5.064L102.453,14.372z"/>
<path fill="#0A212F" d="M117.082,5.486l-2.98,5.137l-3.008-5.11l-0.016-0.027h-4.225l5.379,8.476v5.718h3.737v-5.718l5.357-8.476
	H117.082 M29.834,3.277c-8.739,0-15.876,6.874-16.316,15.518c-0.015,0.28-0.021,0.563-0.021,0.849h4.235
	c0-0.276,0.01-0.552,0.028-0.821C18.183,12.52,23.437,7.52,29.834,7.52c6.421,0,11.691,5.038,12.077,11.375
	c0.015,0.246,0.025,0.496,0.025,0.749h4.234c0-0.227-0.004-0.449-0.014-0.673C45.806,10.244,38.632,3.277,29.834,3.277"/>
<path fill="#0A212F" d="M29.834,8.733c-5.775,0-10.498,4.5-10.87,10.191c-0.016,0.24-0.023,0.48-0.023,0.72h4.237
	c0-0.262,0.014-0.519,0.044-0.772c0.384-3.313,3.203-5.896,6.611-5.896c3.428,0,6.258,2.609,6.617,5.947
	c0.026,0.238,0.039,0.477,0.039,0.721h4.235c0-0.233-0.006-0.463-0.02-0.694C40.346,13.247,35.617,8.733,29.834,8.733z"/>
<path fill="#0A212F" d="M29.834,14.187c-3.012,0.002-5.451,2.445-5.447,5.457H35.28c0-3.011-2.439-5.452-5.449-5.455"/>
</svg>
