<?xml version="1.0" encoding="utf-8"?>
<!-- Generator: Adobe Illustrator 16.0.0, SVG Export Plug-In . SVG Version: 6.00 Build 0)  -->
<!DOCTYPE svg PUBLIC "-//W3C//DTD SVG 1.1//EN" "http://www.w3.org/Graphics/SVG/1.1/DTD/svg11.dtd">
<svg version="1.1" id="Layer_1" xmlns="http://www.w3.org/2000/svg" xmlns:xlink="http://www.w3.org/1999/xlink" x="0px" y="0px"
	 width="135px" height="25px" viewBox="-22 -1.167 135 25" enable-background="new -22 -1.167 135 25" xml:space="preserve">
<path fill="#0A212F" d="M42.037,2.752l10.205,9.542V3.359h3.303V19.91l-10.184-9.729v9.185h-3.324V2.751 M57.395,3.402h6.969
	c1.064,0,4.09,0.804,4.198,4.036c0.086,2.407-1.918,3.528-1.918,3.528c1.088,0.507,2.749,1.755,2.749,4.288
	c0,2.475-2.194,4.291-4.07,4.291h-7.928V3.4V3.402L57.395,3.402z M60.742,9.91h2.534c1.001-0.128,1.769-0.887,1.769-1.964
	c0-1.143-1.001-1.775-1.831-1.839H60.74V9.91H60.742z M60.763,16.945h2.938c0.748-0.063,2.023-0.697,2.023-2.153
	c0-1.417-1.256-2.093-1.938-2.114h-3.028v4.269L60.763,16.945L60.763,16.945z M82.007,6.857c-3.496-2.304-8.225,0.042-8.524,4.31
	c-0.128,5.177,5.028,7.312,8.524,5.07v3.317c-6.181,2.283-11.849-2.027-11.868-8.282c0.018-5.302,5.922-9.993,11.868-7.649V6.857"/>
<path fill="#FFFFFE" d="M35.674,19.38c-0.472,0.209-0.997,0.302-1.556,0.302l-22.363-0.02c-1.263-0.096-2.505-1.13-2.857-2.368
	c-0.377-1.238-0.011-2.516,0.814-3.418c0.797-0.814,1.822-1.154,2.96-1.027c-1.07-0.722-1.521-1.919-1.367-3.201
	c0.143-1.116,0.957-2.202,2-2.646C14.498,6.47,16,6.758,16.935,7.654c-0.194-0.653-0.295-1.59-0.03-2.26
	c0.319-1.058,1.356-2,2.409-2.22c1.407-0.3,2.746,0.227,3.554,1.423c0.154,0.224,0.245,0.479,0.365,0.715
	c0.405-1.144,1.572-2.092,2.758-2.214c1.224-0.156,2.38,0.364,3.149,1.388c0.597,0.848,0.802,2.114,0.415,3.137h0.046
	c0.887-0.792,2.231-1.081,3.377-0.642c1.092,0.358,2.021,1.515,2.169,2.654c0.166,1.26-0.268,2.362-1.23,3.179
	c1.457-0.087,2.843,0.682,3.441,2.027c0.522,1.175,0.37,2.745-0.517,3.7C36.485,18.901,36.102,19.2,35.674,19.38L35.674,19.38"/>
<path fill="#0A212F" d="M33.305,12.851l-8.272,5.483l2.787-6.565l1.322-3.058c0.534-0.987,1.543-1.618,2.643-1.635
	c1.052,0,1.987,0.502,2.581,1.404c0.609,0.901,0.644,2.376,0.034,3.289C34.112,12.2,33.74,12.568,33.305,12.851"/>
<path fill="#0A212F" d="M29.186,7.67l-4.089,9.588l-0.183-1.045l-1.229-7.86c-0.05-0.48,0.148-0.884,0.535-1.149l0.587-0.347
	c0.036-0.121-0.136-0.161-0.217-0.204l-1.15-0.009c-0.075-1.134,0.426-2.162,1.395-2.781c0.752-0.484,1.898-0.613,2.734-0.22
	c1.088,0.44,1.845,1.59,1.864,2.762c-0.005,0.434-0.081,0.878-0.246,1.267V7.67"/>
<path fill="#0A212F" d="M21.333,17.293l-4.027-9.611c-0.432-1.029-0.25-2.381,0.491-3.214c0.791-0.871,1.908-1.242,3.057-0.947
	c0.975,0.236,1.885,1.161,2.126,2.15c0.113,0.369,0.097,0.815,0.074,1.22L21.333,17.293"/>
<path fill="#0A212F" d="M12.726,12.502c-0.827-0.71-1.196-1.658-1.078-2.756c0.121-1.111,1.004-2.197,2.057-2.531
	c1.083-0.336,2.261-0.071,3.046,0.733c0.332,0.313,0.536,0.684,0.707,1.065l3.892,9.339l-8.624-5.848V12.502"/>
<path fill="#0A212F" d="M11.841,19.326c-1.075-0.121-1.905-0.696-2.411-1.675c-0.513-0.988-0.38-2.39,0.311-3.267
	c0.75-0.893,1.836-1.34,2.931-1.121c0.446,0.073,0.819,0.262,1.171,0.481l8.372,5.582L11.841,19.326"/>
<path fill="#0A212F" d="M34.572,19.326c1.075-0.121,1.905-0.696,2.411-1.675c0.513-0.988,0.379-2.39-0.31-3.267
	c-0.75-0.893-1.836-1.34-2.931-1.121c-0.446,0.073-0.819,0.262-1.17,0.481l-8.373,5.582L34.572,19.326L34.572,19.326"/>
</svg>
