<?xml version="1.0" encoding="utf-8"?>
<!-- Generator: Adobe Illustrator 16.0.0, SVG Export Plug-In . SVG Version: 6.00 Build 0)  -->
<!DOCTYPE svg PUBLIC "-//W3C//DTD SVG 1.1//EN" "http://www.w3.org/Graphics/SVG/1.1/DTD/svg11.dtd">
<svg version="1.1" id="Layer_1" xmlns="http://www.w3.org/2000/svg" xmlns:xlink="http://www.w3.org/1999/xlink" x="0px" y="0px"
	 width="135px" height="25px" viewBox="39 2.5 135 25" enable-background="new 39 2.5 135 25" xml:space="preserve">
<g>
	<defs>
		<rect id="SVGID_1_" x="42.958" y="7.907" width="127.709" height="17.928"/>
	</defs>
	<clipPath id="SVGID_2_">
		<use xlink:href="#SVGID_1_"  overflow="visible"/>
	</clipPath>
	<g clip-path="url(#SVGID_2_)">
		<path fill="#0A212F" d="M50.852,7.924c0.358,0.031,0.919,0.207,1.342,0.577c0.449,0.436,0.551,1.098,0.395,1.698
			c-0.141,0.536-0.298,0.814-0.845,1.184c-0.552,0.374-1.22,0.341-1.22,0.341v2.321l1.129,0.913l-1.129,0.912v3.16
			c0,0,1.131-0.648,1.833-2.1c0,0,0.028-0.079,0.095-0.229c0.062,0.389,0.026,1.178-0.414,2.188c-0.332,0.76-0.934,1.493-1.69,1.91
			c-1.341,0.743-2.346,0.814-3.424,0.591c-1.263-0.26-2.408-0.97-3.19-2.204c-0.551-0.871-0.795-1.883-0.773-2.973
			c0.044-2.14,1.637-3.984,3.475-4.673c0.224-0.083,0.313-0.139,0.629-0.168c-0.146,0.1-0.315,0.229-0.523,0.364
			c-0.592,0.389-1.098,1.164-1.315,1.76l3.566-1.592v4.985l-2.876,1.441c0.328,0.454,1.324,1.143,2.176,1.24
			c1.45,0.16,2.3-0.474,2.3-0.474v-3.229l-1.124-0.911l1.124-0.912v-2.323c-0.612-0.07-1.357-0.272-1.792-0.38
			c-0.64-0.157-2.772-0.755-3.109-0.805c-0.334-0.05-0.748-0.035-0.998,0.189c-0.25,0.226-0.406,0.622-0.299,0.979
			c0.06,0.202,0.2,0.32,0.305,0.436c0,0-0.123-0.011-0.347-0.144c-0.403-0.242-0.709-0.714-0.746-1.296
			c-0.058-0.75,0.283-1.478,0.896-1.914c0.549-0.352,1.168-0.578,1.889-0.475c1.051,0.149,2.463,0.742,3.721,1.045
			c0.489,0.118,0.865,0.156,1.208-0.042c0.16-0.116,0.44-0.413,0.211-0.806c-0.269-0.462-0.783-0.451-1.217-0.532
			C50.488,7.897,50.57,7.897,50.852,7.924L50.852,7.924z M46.612,17.835v-4.813l-1.45,0.646c0,0-0.369,0.827-0.304,2.026
			c0.051,0.937,0.575,2.058,0.978,2.527L46.612,17.835L46.612,17.835z"/>
		<path fill="#0A212F" d="M64.688,12.788c0,0-1.093,0.661-1.827,1.1c-0.736,0.436-1.722,0.916-1.722,0.916v4.594l-0.657,0.526
			l0.087,0.103l0.641-0.517l2.01,1.817l3.494-2.766l-0.083-0.101l-1.931,1.515l-1.587-1.486v-0.554l3.188-2.345L64.688,12.788
			L64.688,12.788z M64.735,16.58l-1.621,1.188V13.82L64.735,16.58L64.735,16.58z M55.531,23.056
			c0.458,0.111,1.268,0.175,2.243-0.315c1.081-0.539,1.624-1.687,1.616-2.863l0.045-1.666V14.57l0.692-0.528l-0.081-0.102
			l-0.68,0.512l-1.569-1.742l-2.012,1.726V8.566l-2.514,1.942c0.112,0.071,0.467,0.137,0.478,0.638v8.223l-1.065,0.789l0.073,0.111
			l0.514-0.384l1.432,1.33l2.254-1.792l-0.082-0.103l-0.53,0.42l-0.561-0.558l0.005-4.579l0.657-0.56l0.979,1.216
			c0,0-0.002,2.967,0,3.95c-0.006,1.05-0.01,2.36-0.562,2.993C56.313,22.839,56.093,22.89,55.531,23.056 M71.173,22.64
			c-0.9-0.102-1.279-0.649-1.269-1.079c0.007-0.276,0.257-0.816,0.805-0.889c0.547-0.077,1.106,0.179,1.578,0.734l2.08-2.298
			l-0.1-0.09l-0.559,0.625c-0.566-0.632-1.334-1.045-2.174-1.171v-6.998l5.402,9.836c0,0,0.053,0.113,0.273,0.113
			c0.192,0,0.146-0.154,0.146-0.154l0-9.9c0.438-0.018,1.108-0.259,1.434-0.593c1.041-1.069,0.616-2.234,0.501-2.346
			c-0.063,0.508-0.456,1.021-1.109,1.023C77.324,9.456,76.8,8.823,76.8,8.823l-2.079,2.369l0.1,0.09l0.595-0.681
			c0.727,0.669,1.258,0.732,1.807,0.769v5.745l-4.007-7.278c-0.362-0.6-0.916-1.128-1.781-1.135
			c-0.995-0.007-1.708,0.871-1.793,1.627c-0.096,0.853,0.01,1.05,0.01,1.05s0.147-0.95,0.735-0.942
			c0.528,0.008,0.803,0.493,1.016,0.858v2.107c-0.546,0.037-1.964,0.101-2.051,1.576c-0.006,0.548,0.334,1.124,0.633,1.318
			c0.384,0.252,0.684,0.247,0.684,0.247s-0.46-0.245-0.322-0.728c0.123-0.434,1.024-0.505,1.056-0.323v2.974
			c-0.433-0.004-1.821,0.043-2.448,1.232c-0.377,0.718-0.355,1.522,0.048,2.089C69.332,22.249,70.009,22.84,71.173,22.64
			 M82.583,12.788c0,0-1.093,0.661-1.829,1.1c-0.734,0.436-1.721,0.916-1.721,0.916v4.594l-0.658,0.526l0.087,0.103l0.642-0.517
			l2.01,1.817l3.494-2.766l-0.082-0.101l-1.931,1.515l-1.587-1.486v-0.554l3.189-2.345L82.583,12.788L82.583,12.788z M82.631,16.58
			l-1.622,1.188V13.82L82.631,16.58L82.631,16.58z M87.467,21.361l-1.713-1.423l-0.752,0.546l-0.077-0.107l0.765-0.56V15.84
			c0.038-1.637-1.501-1.231-1.417-2.968c0.037-0.764,0.777-1.341,1.149-1.533c0.4-0.202,0.833-0.202,0.833-0.202
			s-0.701,0.438-0.53,1.068c0.262,0.972,1.923,1.059,1.954,2.353v4.512l1.227,0.981l0.324-0.251v-4.886l-0.663-0.656l1.704-1.507
			l1.555,1.379l-0.593,0.643v4.329l1.457,1.203l0.258-0.166v-5.211l-0.662-0.62l1.706-1.559l1.596,1.318l0.637-0.564l0.087,0.1
			l-1.435,1.259v4.248l-3.67,2.264l-1.876-1.486L87.467,21.361 M162.54,12.788c0,0-1.094,0.661-1.827,1.1
			c-0.735,0.436-1.723,0.916-1.723,0.916v4.594l-0.657,0.526l0.089,0.103l0.641-0.517l2.01,1.817l3.494-2.766l-0.083-0.101
			l-1.931,1.515l-1.587-1.486v-0.554l3.188-2.345L162.54,12.788L162.54,12.788z M162.587,16.58l-1.621,1.188V13.82L162.587,16.58
			L162.587,16.58z M146.138,14.709l0.086,0.099l0.656-0.567l0.978,1.106v3.796l-0.474,0.433l1.521,1.72l1.562-1.538l-0.641-0.666
			v-4.59l0.387-0.31l1.08,1.26v3.785l-0.404,0.405l1.432,1.611l1.533-1.533l-0.563-0.592l-0.016-4.608l0.414-0.336l1.127,1.238
			v3.766l-0.371,0.369l1.582,1.725l2.125-1.961l-0.09-0.097l-0.517,0.475l-0.791-0.877v-4.296l0.764-0.581l-0.079-0.105l-0.765,0.58
			l-1.445-1.62l-2.068,1.633l-1.447-1.575l-1.995,1.562l-1.462-1.554L146.138,14.709"/>
		<path fill="#0A212F" d="M141.813,14.591l0.086,0.1l0.556-0.481l0.87,1.029v4.339l-0.614,0.536l0.086,0.1l0.645-0.548l1.401,1.617
			l2.026-1.81l-0.085-0.1l-0.597,0.525l-0.839-0.966v-4.242l0.707-0.611l-0.085-0.1l-0.671,0.577l-1.476-1.719L141.813,14.591"/>
		<path fill="#0A212F" d="M142.396,10.998l1.525-1.397l1.241,1.376l-1.532,1.391L142.396,10.998z M140.345,7.924
			c0.357,0.031,0.919,0.207,1.342,0.577c0.447,0.436,0.551,1.098,0.393,1.698c-0.14,0.536-0.295,0.814-0.844,1.184
			c-0.552,0.374-1.22,0.341-1.22,0.341v2.321l1.129,0.913l-1.129,0.912v3.16c0,0,1.132-0.648,1.834-2.1c0,0,0.028-0.079,0.094-0.229
			c0.062,0.389,0.027,1.178-0.412,2.188c-0.333,0.76-0.936,1.493-1.692,1.91c-1.34,0.743-2.346,0.814-3.424,0.591
			c-1.263-0.26-2.407-0.97-3.189-2.204c-0.551-0.871-0.796-1.883-0.773-2.973c0.044-2.14,1.636-3.984,3.475-4.673
			c0.222-0.083,0.312-0.139,0.629-0.168c-0.146,0.1-0.314,0.229-0.521,0.364c-0.593,0.389-1.099,1.164-1.317,1.76l3.567-1.592v4.985
			l-2.876,1.441c0.328,0.454,1.324,1.143,2.177,1.24c1.448,0.16,2.3-0.474,2.3-0.474v-3.229l-1.123-0.911l1.123-0.912v-2.323
			c-0.614-0.07-1.356-0.272-1.792-0.38c-0.641-0.157-2.773-0.755-3.108-0.805c-0.335-0.05-0.748-0.035-1,0.189
			c-0.25,0.226-0.403,0.622-0.299,0.979c0.061,0.202,0.199,0.32,0.306,0.436c0,0-0.123-0.011-0.346-0.144
			c-0.404-0.242-0.71-0.714-0.746-1.296c-0.059-0.751,0.283-1.478,0.897-1.914c0.548-0.352,1.167-0.578,1.888-0.475
			c1.05,0.149,2.462,0.742,3.721,1.045c0.488,0.118,0.866,0.156,1.206-0.042c0.161-0.116,0.442-0.413,0.211-0.806
			c-0.268-0.462-0.78-0.451-1.215-0.532C139.982,7.897,140.064,7.897,140.345,7.924L140.345,7.924z M136.104,17.835v-4.813
			l-1.447,0.646c0,0-0.371,0.827-0.306,2.026c0.05,0.937,0.574,2.058,0.979,2.527L136.104,17.835z M166.429,21.921
			c-0.232,0.067-1.238-0.176-1.479-1.219c-0.234-1.016,0.471-1.703,1.536-2.786l-1.258-1.15v-2.193c0,0,0.924-0.461,1.65-0.914
			c0.725-0.455,1.464-0.945,1.464-0.945s0.541,0.683,1.151,0.628c0.956-0.084,0.913-0.837,0.885-1.017
			c0.163,0.292,0.601,1.158-1.079,3.096l1.368,1.105v2.851c0,0-1.591,0.827-3.095,1.924c0,0-0.84-1.05-1.569-0.548
			C165.512,21.092,165.737,21.663,166.429,21.921L166.429,21.921z M165.245,19.723c0,0,0.723-1.194,1.964-0.938
			c1.191,0.248,1.603,1.504,1.603,1.504v-2.894l-0.828-0.724C167.071,17.589,165.446,18.915,165.245,19.723z M167.088,13.674v2.282
			l0.76,0.662c0,0,1.65-1.321,2.249-2.544c0,0-0.741,1.005-1.739,0.698C167.521,14.518,167.088,13.674,167.088,13.674z"/>
		<path fill="#0A212F" d="M115.05,14.683l0.616-0.566l0.088,0.098l-0.602,0.557v4.534c0,0-1.14,0.604-1.935,1.053
			c-0.796,0.449-1.646,0.977-1.646,0.977l-2.092-1.763l-0.554,0.482l-0.09-0.103l0.583-0.504v-4.875h0.006
			c0,0,0.987-0.447,1.82-0.917c0.744-0.419,1.578-0.906,1.578-0.906L115.05,14.683L115.05,14.683z M111.404,18.679l1.768,1.598
			v-4.894l-1.768-1.634V18.679L111.404,18.679z M119.163,14.223l1.327-1.357c0,0,0.185,0.161,0.356,0.244
			c0.096,0.047,0.499,0.254,0.867,0.052c0.201-0.11,0.229-0.139,0.449-0.347c0.044,1.056-0.464,1.799-1.095,2.105
			c-0.26,0.126-1.016,0.368-1.806-0.595v4.877l0.841,0.744l0.702-0.581l0.081,0.103l-2.2,1.834l-1.674-1.521l-0.601,0.566
			l-0.099-0.104l0.918-0.828l0.006-4.21l-0.702-0.932l-0.605,0.534l-0.087-0.097l2.13-1.914L119.163,14.223 M124.767,16.256
			l2.457-3.574c0,0,0.325,0.383,0.888,0.533c0.77,0.2,1.438-0.541,1.438-0.541c-0.128,0.956-0.612,2.04-1.613,2.205
			c-0.883,0.147-1.701-0.538-1.701-0.538l-0.16,0.247l3.412,5.15l0.681-0.597l0.09,0.099l-2.342,2.044L124.767,16.256z"/>
		<path fill="#0A212F" d="M122.735,11.486c0-0.772-0.315-1.247-0.729-1.213l2.681-1.882v10.653l0,0l0.707,0.744l0.537-0.464
			l0.085,0.101l-2.161,1.884l-1.463-1.373l-0.585,0.516l-0.094-0.101l1.021-0.89V11.486 M100.329,11.311
			c0-0.72-0.293-1.122-0.766-1.132c-0.681-0.015-0.842,0.945-0.842,0.945s-0.125-0.739,0.495-1.412
			c0.349-0.375,0.999-0.904,2.016-0.659c1.049,0.255,1.348,1.068,1.348,1.788v9.91c0,0,0.396,0.048,0.669,0.108
			c0.316,0.064,0.614,0.149,0.614,0.149V9.057h0.131v1.612l2.151-1.732l1.578,1.402l0.735-0.635l0.084,0.099l-0.77,0.661v9.214
			c-0.037,0.601-0.135,1.213-0.702,1.564c-1.267,0.752-2.795-0.114-4.157-0.313c-1.01-0.148-2.596-0.341-2.994,0.585
			c-0.13,0.306-0.121,0.773,0.337,1.081c0.919,0.615,5.016-1.031,6.42-0.376c1.279,0.595,1.275,1.539,1.078,2.186
			c-0.333,1.216-1.868,1.429-1.868,1.429s0.75-0.437,0.536-1.158c-0.108-0.364-0.355-0.468-1.16-0.379
			c-1.755,0.2-3.853,1.051-5.263,0.461c-0.726-0.302-1.24-1.211-1.19-2.103c0.036-1.283,1.519-1.791,1.519-1.791v-4.748
			c-0.042-0.189-0.834-0.141-1.007,0.209c-0.263,0.528,0.328,0.769,0.328,0.769s-0.49,0.074-0.9-0.398
			c-0.199-0.231-0.616-1.039-0.074-1.787c0.445-0.618,0.98-0.725,1.653-0.798V11.311L100.329,11.311z M103.994,21.045
			c0,0,0.624,0.165,1.079-0.209c0.506-0.417,0.453-1.003,0.453-1.003v-3.69c0,0-0.294-0.377-0.759-0.377
			c-0.466,0-0.773,0.391-0.773,0.391V21.045L103.994,21.045z M105.526,11.354l-1.034-0.908l-0.498,0.394v3.42
			c0,0,0.307,0.389,0.773,0.389c0.466,0,0.76-0.373,0.76-0.373L105.526,11.354L105.526,11.354z M105.526,14.481
			c0,0-0.296,0.336-0.762,0.336c-0.465,0-0.77-0.339-0.77-0.339v1.46c0,0,0.305-0.339,0.77-0.339c0.466,0,0.762,0.32,0.762,0.32
			V14.481z"/>
	</g>
</g>
</svg>
