<?xml version="1.0" encoding="utf-8"?>
<!-- Generator: Adobe Illustrator 16.0.0, SVG Export Plug-In . SVG Version: 6.00 Build 0)  -->
<!DOCTYPE svg PUBLIC "-//W3C//DTD SVG 1.1//EN" "http://www.w3.org/Graphics/SVG/1.1/DTD/svg11.dtd">
<svg version="1.1" id="Layer_1" xmlns="http://www.w3.org/2000/svg" xmlns:xlink="http://www.w3.org/1999/xlink" x="0px" y="0px"
	 width="135px" height="25px" viewBox="-7 0.5 135 25" enable-background="new -7 0.5 135 25" xml:space="preserve">
<path fill="#0A212F" d="M30.044,9.264h4.162v12.525h-4.162V9.264z M35.067,4.366h4.161v17.423h-4.161V4.366z M40.089,4.366h4.16
	v17.423h-4.16V4.366z M89.034,10.555V9.264h-4.161v12.525h4.161v-5.97c0-1.536,0.812-2.364,2.29-2.364h0.493V9.142
	C90.561,9.19,89.649,9.581,89.034,10.555L89.034,10.555z M32.125,3.688c-1.332,0-2.413,1.069-2.413,2.388
	c0,1.319,1.081,2.389,2.413,2.389c1.333,0,2.412-1.07,2.412-2.389C34.539,4.756,33.458,3.688,32.125,3.688z M79.849,10.218
	c-0.585-0.631-1.945-1.153-2.978-1.153c-3.144,0-5.398,2.05-5.951,5.099c-0.6-2.925-3.176-5.174-6.316-5.174
	c-3.17,0-5.766,2.276-6.333,5.254c-0.551-3.096-3.012-5.148-6.065-5.148c-1.132,0-2.069,0.244-2.881,0.803V4.367h-4.16v17.425h4.087
	v-1.145c0.984,0.899,2.044,1.315,3.35,1.315c2.81,0,5.176-2.178,5.683-5.18c0.597,2.937,3.157,5.171,6.319,5.171
	c3.137,0,5.651-2.187,6.293-5.048c0.529,3.125,3.032,5.082,6.022,5.082c1.034,0,2.167-0.344,2.932-0.903v0.707h4.159v-5.481
	c0-0.227,0-0.445-0.005-0.658c0.005-0.214,0.005-0.434,0.005-0.658V9.285h-4.159v0.933H79.849z M51.763,17.976
	c-1.333,0-2.414-1.069-2.414-2.39c0-1.318,1.082-2.388,2.414-2.388c1.332,0,2.413,1.069,2.413,2.388
	C54.176,16.906,53.096,17.976,51.763,17.976L51.763,17.976z M64.604,17.785c-1.331,0-2.413-1.072-2.413-2.39
	c0-1.318,1.082-2.388,2.413-2.388c1.333,0,2.414,1.069,2.414,2.388C67.018,16.713,65.937,17.785,64.604,17.785z M77.108,17.859
	c-1.333,0-2.413-1.07-2.413-2.389s1.08-2.388,2.413-2.388s2.414,1.069,2.414,2.388S78.441,17.859,77.108,17.859z M101.049,4.364
	v5.532c-0.81-0.56-1.746-0.803-2.88-0.803c-3.472,0-6.179,2.656-6.179,6.482c0,3.607,2.609,6.384,5.787,6.384
	c1.303,0,2.36-0.415,3.348-1.315v1.145h4.088V4.364H101.049L101.049,4.364z M98.599,17.943c-1.331,0-2.411-1.07-2.411-2.387
	c0-1.319,1.08-2.39,2.412-2.39c1.333,0,2.414,1.07,2.414,2.39C101.014,16.873,99.933,17.943,98.599,17.943L98.599,17.943z
	 M23.399,9.096c-1.133,0-2.068,0.244-2.882,0.803V4.367h-4.16v17.425h4.087v-1.145c0.986,0.899,2.044,1.315,3.35,1.315
	c3.176,0,5.786-2.78,5.786-6.386C29.58,11.752,26.871,9.096,23.399,9.096L23.399,9.096z M22.957,17.976
	c-1.332,0-2.414-1.069-2.414-2.39c0-1.318,1.082-2.388,2.414-2.388c1.333,0,2.413,1.071,2.413,2.388
	C25.37,16.906,24.29,17.976,22.957,17.976L22.957,17.976z"/>
</svg>
