<?xml version="1.0" encoding="utf-8"?>
<!-- Generator: Adobe Illustrator 16.0.0, SVG Export Plug-In . SVG Version: 6.00 Build 0)  -->
<!DOCTYPE svg PUBLIC "-//W3C//DTD SVG 1.1//EN" "http://www.w3.org/Graphics/SVG/1.1/DTD/svg11.dtd">
<svg version="1.1" id="Layer_1" xmlns="http://www.w3.org/2000/svg" xmlns:xlink="http://www.w3.org/1999/xlink" x="0px" y="0px"
	 width="135px" height="25px" viewBox="-29 -2.5 135 25" enable-background="new -29 -2.5 135 25" xml:space="preserve">
<path fill="#0A212F" d="M17.85,5.908L1.18,5.934c0.011,0.01,0.73-5.199,0.73-5.199l16.554,0.013L17.85,5.908z M55,0.837
	c2.802,0,2.394,4.212,2.249,5.078L19.035,5.934c0.078-1.467,0.51-2.897,1.71-3.943c1.111-0.868,1.85-1.144,2.783-1.144L55,0.837
	L55,0.837z M75.12,0.815c1.136,0,1.83,0.917,2.121,1.718c0.292,0.802,0.153,2.731,0.04,3.403L58.479,5.916l0.514-5.089L75.12,0.815z
	 M34.779,8.233c2.703,0.005,2.744,1.642,2.189,5.927c-0.452,3.497-0.606,5.826-2.478,5.826l-1.622,0.013H17.385l0.59-4.909
	l12.31,0.009c1.002,0.012,0.798-2.425,0.798-2.425l-10.396-0.015c-1.143-0.004-2.16-1.508-2.104-2.575l0.152-1.853L34.779,8.233
	L34.779,8.233z M16.927,12.667L6.582,12.684l-0.376,2.419h10.457L16.051,20H-0.71L0.88,8.233h16.584L16.927,12.667z M56.973,8.233
	c-0.136,0.825-0.566,4.338-2.939,4.338l-9.431,0.001l-1.021,7.427H37.46l1.442-11.766H56.973z M62.758,19.999h-6.063l1.501-11.766
	h6.063L62.758,19.999z M75.63,19.999h-5.97l1.381-11.766h5.988L75.63,19.999z"/>
</svg>
