<?xml version="1.0" encoding="utf-8"?>
<!-- Generator: Adobe Illustrator 16.0.0, SVG Export Plug-In . SVG Version: 6.00 Build 0)  -->
<!DOCTYPE svg PUBLIC "-//W3C//DTD SVG 1.1//EN" "http://www.w3.org/Graphics/SVG/1.1/DTD/svg11.dtd">
<svg version="1.1" id="Layer_1" xmlns="http://www.w3.org/2000/svg" xmlns:xlink="http://www.w3.org/1999/xlink" x="0px" y="0px"
	 width="135px" height="25px" viewBox="-23 -2 135 25" enable-background="new -23 -2 135 25" xml:space="preserve">
<path fill="#0A212F" d="M3.622,1.805H3.129V1.44H7.6v0.364H6.38l2.448,12.677l2.45-12.675H9.831V1.44h2.667v0.364h-0.786
	L8.235,19.721H7.099L3.622,1.805z M12.476,13.693h2.715l-1.356-7.066l-1.359,7.068V13.693z M10.155,19.354h0.788L14.43,1.44h1.138
	l3.486,17.914h0.47v0.366h-4.458v-0.366h1.223l-1.031-5.295H12.41l-1.03,5.295h1.451v0.366h-2.675V19.354z M20.035,19.883h0.602
	V1.815h-1.113V1.44h3.91l4.029,11.367V1.815h-1.185V1.44h2.613v0.375h-0.97v18.493h-0.723L21.095,2.775v17.107h1.185v0.373h-2.245
	V19.883 M29.478,19.721v-0.366h0.834V1.806h-0.834V1.44h4.684v0.364h-0.861v17.549h0.861v0.363h-4.684"/>
<path fill="#0A212F" d="M36.345,19.721v-0.366h0.818V1.771h-0.049c-1.166,0-2.365,1.271-2.589,6.813h-0.362V1.44h8.782v7.144h-0.363
	c-0.248-5.542-1.547-6.813-2.588-6.813h-0.075v17.583h0.843v0.366H36.345 M46.598,19.721v-0.366h0.874v-8.144l-2.767-9.405h-0.589
	V1.44h4.78v0.364h-1.338l2.572,8.618l2.199-8.618h-1.393V1.44h2.548v0.364h-0.695l-2.386,9.373v8.177h0.873v0.366H46.598
	 M55.825,19.721v-0.366h0.755V1.806h-0.755V1.44h8.198v5.466h-0.381c-0.235-3.865-1.52-5.102-3.55-5.102h-0.624v8.254h0.277
	c1.569,0,2.074-0.678,2.229-3.152h0.356v6.845h-0.355c-0.156-2.701-0.661-3.329-2.083-3.329h-0.425v8.932h1.145v0.366H55.825z
	 M64.586,13.693h2.717l-1.356-7.066l-1.36,7.068V13.693z M62.267,19.354h0.788L66.539,1.44h1.139l3.485,17.914h0.471v0.366h-4.457
	v-0.366h1.222l-1.032-5.295h-2.849l-1.03,5.295h1.451v0.366h-2.673L62.267,19.354L62.267,19.354z"/>
<path fill="#0A212F" d="M71.634,19.721v-0.366h0.7V1.806h-0.699V1.44h4.097v0.364H75.01v17.549h0.722v0.363h-4.097 M80.459,1.813
	v8.103h0.382c1.371,0,2.361,0.062,2.361-3.375V5.63c0-3.332-0.992-3.817-2.21-3.817H80.459L80.459,1.813z M83.049,17.759v-4.581
	c0-2.446-0.685-2.889-2.107-2.889h-0.484v9.49h1.118v0.374h-4.67v-0.374h0.737V1.813h-0.737V1.44h4.087
	c2.998,0,4.927,1.406,4.927,4.606c0,2.812-1.659,3.8-3.773,4.061v0.025c2.218,0.338,3.697,1.25,3.697,4.555v4.355
	c0,0.573,0.187,0.729,0.491,0.729c0.204,0,0.389-0.071,0.525-0.122v0.372c-0.152,0.104-0.635,0.286-1.296,0.286
	C83.99,20.309,83.05,19.737,83.049,17.759L83.049,17.759z"/>
</svg>
