<svg width="20" height="20" viewBox="0 0 20 20" fill="none" xmlns="http://www.w3.org/2000/svg">
<path d="M3.75 3.125L16.25 16.875" stroke="#112233" stroke-linecap="round" stroke-linejoin="round"/>
<path d="M12.1019 12.3126C11.4887 12.8701 10.6791 13.1611 9.85124 13.1216C9.02342 13.0821 8.24518 12.7155 7.6877 12.1022C7.13021 11.489 6.83915 10.6794 6.87853 9.85163C6.91792 9.0238 7.28452 8.24553 7.8977 7.68799" stroke="#112233" stroke-linecap="round" stroke-linejoin="round"/>
<path d="M5.78082 5.35889C2.59572 6.97182 1.25 10 1.25 10C1.25 10 3.75 15.6244 10 15.6244C11.4644 15.6361 12.9105 15.2988 14.2186 14.6405" stroke="#112233" stroke-linecap="round" stroke-linejoin="round"/>
<path d="M16.2982 13.211C18.0014 11.6855 18.7506 10.0001 18.7506 10.0001C18.7506 10.0001 16.2506 4.37452 10.0006 4.37452C9.45925 4.37364 8.9188 4.41765 8.38477 4.5061" stroke="#112233" stroke-linecap="round" stroke-linejoin="round"/>
<path d="M10.5879 6.93018C11.2521 7.05772 11.857 7.39717 12.312 7.89762C12.7669 8.39808 13.0473 9.03254 13.1112 9.70586" stroke="#112233" stroke-linecap="round" stroke-linejoin="round"/>
</svg>
