<svg width="15" height="15" viewBox="0 0 15 15" fill="none" xmlns="http://www.w3.org/2000/svg">
<path d="M3.75 9.375C4.78553 9.375 5.625 8.53553 5.625 7.5C5.625 6.46447 4.78553 5.625 3.75 5.625C2.71447 5.625 1.875 6.46447 1.875 7.5C1.875 8.53553 2.71447 9.375 3.75 9.375Z" stroke="#0E9EEB" stroke-width="1.5" stroke-linecap="round" stroke-linejoin="round"/>
<path d="M10.3125 13.5938C11.348 13.5938 12.1875 12.7543 12.1875 11.7188C12.1875 10.6832 11.348 9.84375 10.3125 9.84375C9.27697 9.84375 8.4375 10.6832 8.4375 11.7188C8.4375 12.7543 9.27697 13.5938 10.3125 13.5938Z" stroke="#0E9EEB" stroke-width="1.5" stroke-linecap="round" stroke-linejoin="round"/>
<path d="M10.3125 5.15625C11.348 5.15625 12.1875 4.31678 12.1875 3.28125C12.1875 2.24572 11.348 1.40625 10.3125 1.40625C9.27697 1.40625 8.4375 2.24572 8.4375 3.28125C8.4375 4.31678 9.27697 5.15625 10.3125 5.15625Z" stroke="#0E9EEB" stroke-width="1.5" stroke-linecap="round" stroke-linejoin="round"/>
<path d="M8.73537 4.2951L5.3269 6.48626" stroke="#0E9EEB" stroke-width="1.5" stroke-linecap="round" stroke-linejoin="round"/>
<path d="M5.3269 8.51373L8.73537 10.7049" stroke="#0E9EEB" stroke-width="1.5" stroke-linecap="round" stroke-linejoin="round"/>
</svg>
