<svg width="36" height="32" viewBox="0 0 36 32" fill="none" xmlns="http://www.w3.org/2000/svg">
<path fill-rule="evenodd" clip-rule="evenodd" d="M32.3587 15.9365H26.8003V11.4898C26.8003 9.03716 28.7944 7.04309 31.247 7.04309H31.8028C32.7269 7.04309 33.4703 6.29966 33.4703 5.37558V2.04056C33.4703 1.11648 32.7269 0.373047 31.8028 0.373047H31.247C25.105 0.373047 20.1302 5.34779 20.1302 11.4898V28.1649C20.1302 30.0061 21.6241 31.4999 23.4653 31.4999H32.3587C34.1999 31.4999 35.6937 30.0061 35.6937 28.1649V19.2715C35.6937 17.4303 34.1999 15.9365 32.3587 15.9365ZM12.3485 15.9365H6.79016V11.4898C6.79016 9.03716 8.78423 7.04309 11.2369 7.04309H11.7927C12.7168 7.04309 13.4602 6.29966 13.4602 5.37558V2.04056C13.4602 1.11648 12.7168 0.373047 11.7927 0.373047H11.2369C5.09486 0.373047 0.120117 5.34779 0.120117 11.4898V28.1649C0.120117 30.0061 1.61393 31.4999 3.45514 31.4999H12.3485C14.1897 31.4999 15.6835 30.0061 15.6835 28.1649V19.2715C15.6835 17.4303 14.1897 15.9365 12.3485 15.9365Z" fill="#0E9EEB"/>
</svg>
