<svg width="20" height="20" viewBox="0 0 20 20" fill="none" xmlns="http://www.w3.org/2000/svg">
<path d="M10 10V17.5" stroke="#2A2A2C" stroke-linecap="round" stroke-linejoin="round"/>
<path d="M16.9919 15.325C17.8047 14.8819 18.4467 14.1807 18.8168 13.3322C19.1868 12.4836 19.2637 11.536 19.0354 10.6389C18.807 9.74179 18.2865 8.94626 17.5558 8.37788C16.8251 7.80949 15.9259 7.50062 15.0002 7.5H13.9502C13.698 6.52437 13.2278 5.61862 12.5752 4.85083C11.9225 4.08305 11.1042 3.47321 10.182 3.06718C9.25967 2.66114 8.25734 2.46947 7.25031 2.50657C6.24328 2.54368 5.25777 2.80859 4.36786 3.28139C3.47795 3.7542 2.7068 4.42259 2.1124 5.23632C1.51799 6.05005 1.11579 6.98795 0.936028 7.9795C0.756269 8.97105 0.803632 9.99044 1.07456 10.9611C1.34548 11.9317 1.83291 12.8282 2.50021 13.5833" stroke="#2A2A2C" stroke-linecap="round" stroke-linejoin="round"/>
<path d="M13.3337 13.3333L11.667 11.6667L10.0003 10L6.66699 13.3333" stroke="#2A2A2C" stroke-linecap="round" stroke-linejoin="round"/>
</svg>
