<svg width="22" height="22" viewBox="0 0 22 22" fill="none" xmlns="http://www.w3.org/2000/svg">
<path d="M11 19.25C15.5563 19.25 19.25 15.5563 19.25 11C19.25 6.44365 15.5563 2.75 11 2.75C6.44365 2.75 2.75 6.44365 2.75 11C2.75 15.5563 6.44365 19.25 11 19.25Z" stroke="white" stroke-width="1.5" stroke-linecap="round" stroke-linejoin="round"/>
<path d="M11 13.75C12.8985 13.75 14.4375 12.211 14.4375 10.3125C14.4375 8.41402 12.8985 6.875 11 6.875C9.10152 6.875 7.5625 8.41402 7.5625 10.3125C7.5625 12.211 9.10152 13.75 11 13.75Z" stroke="white" stroke-width="1.5" stroke-linecap="round" stroke-linejoin="round"/>
<path d="M5.48267 17.1337C6.00053 16.1155 6.79005 15.2605 7.76382 14.6633C8.73758 14.0661 9.85761 13.75 10.9999 13.75C12.1422 13.75 13.2623 14.0661 14.236 14.6633C15.2098 15.2605 15.9993 16.1155 16.5172 17.1337" stroke="white" stroke-width="1.5" stroke-linecap="round" stroke-linejoin="round"/>
</svg>
