<svg width="128" height="26" viewBox="0 0 128 26" fill="none" xmlns="http://www.w3.org/2000/svg">
<path d="M70.479 18.8347H63.6973V6.83294H70.479V18.8347Z" fill="#FF5F00"/>
<path d="M64.1309 12.8329C64.1309 10.3982 65.2885 8.22956 67.0912 6.83197C65.7729 5.80999 64.1092 5.2 62.3011 5.2C58.0206 5.2 54.5508 8.6173 54.5508 12.8329C54.5508 17.0484 58.0206 20.4657 62.3011 20.4657C64.1092 20.4657 65.7729 19.8557 67.0912 18.8338C65.2885 17.4362 64.1309 15.2675 64.1309 12.8329Z" fill="#EB001B"/>
<path d="M79.6248 12.8329C79.6248 17.0484 76.155 20.4657 71.8745 20.4657C70.0664 20.4657 68.4027 19.8557 67.084 18.8338C68.8872 17.4362 70.0447 15.2675 70.0447 12.8329C70.0447 10.3982 68.8872 8.22956 67.084 6.83197C68.4027 5.80999 70.0664 5.2 71.8745 5.2C76.155 5.2 79.6248 8.6173 79.6248 12.8329Z" fill="#F79E1B"/>
<rect x="102.5" y="4.5" width="25" height="17" rx="3.5" fill="#006FCF" stroke="#F3F3F3"/>
<path fill-rule="evenodd" clip-rule="evenodd" d="M107.319 17.0022V13.2967H111.498L111.947 13.8454L112.41 13.2967H127.581V16.7466C127.581 16.7466 127.184 16.9985 126.725 17.0022H118.325L117.819 16.4181V17.0022H116.163V16.0051C116.163 16.0051 115.936 16.1443 115.447 16.1443H114.883V17.0022H112.375L111.927 16.4417L111.472 17.0022H107.319ZM102.449 10.5038L103.39 8.44112H105.016L105.55 9.59656V8.44112H107.571L107.889 9.27624L108.197 8.44112H117.272V8.86096C117.272 8.86096 117.749 8.44112 118.533 8.44112L121.477 8.45081L122.002 9.59112V8.44112H123.694L124.159 9.09614V8.44112H125.867V12.1467H124.159L123.713 11.4895V12.1467H121.227L120.977 11.5625H120.309L120.063 12.1467H118.378C117.703 12.1467 117.272 11.7354 117.272 11.7354V12.1467H114.73L114.226 11.5625V12.1467H104.775L104.525 11.5625H103.859L103.611 12.1467H102.449V10.5038ZM102.454 11.6725L103.722 8.89794H104.684L105.951 11.6725H105.107L104.874 11.1169H103.513L103.279 11.6725H102.454ZM104.605 10.5146L104.191 9.54367L103.775 10.5146H104.605ZM106.039 11.6721V8.89747L107.212 8.90157L107.895 10.6905L108.561 8.89747H109.725V11.6721H108.988V9.62763L108.206 11.6721H107.56L106.776 9.62763V11.6721H106.039ZM110.229 11.6721V8.89747H112.635V9.5181H110.974V9.9927H112.596V10.5768H110.974V11.0697H112.635V11.6721H110.229ZM113.062 11.6725V8.89794H114.702C115.246 8.89794 115.733 9.21422 115.733 9.79809C115.733 10.2972 115.322 10.6187 114.924 10.6503L115.894 11.6725H114.993L114.109 10.6868H113.799V11.6725H113.062ZM114.642 9.51857H113.799V10.1027H114.653C114.801 10.1027 114.991 9.99496 114.991 9.81063C114.991 9.66736 114.844 9.51857 114.642 9.51857ZM116.787 11.6721H116.034V8.89747H116.787V11.6721ZM118.571 11.6721H118.409C117.623 11.6721 117.145 11.0893 117.145 10.2962C117.145 9.48345 117.617 8.89747 118.61 8.89747H119.425V9.55461H118.58C118.177 9.55461 117.892 9.85053 117.892 10.303C117.892 10.8404 118.218 11.066 118.688 11.066H118.882L118.571 11.6721ZM118.907 11.6725L120.176 8.89794H121.137L122.405 11.6725H121.561L121.328 11.1169H119.967L119.733 11.6725H118.907ZM121.059 10.5146L120.645 9.54367L120.229 10.5146H121.059ZM122.491 11.6721V8.89747H123.429L124.625 10.6407V8.89747H125.363V11.6721H124.456L123.228 9.88318V11.6721H122.491ZM107.823 16.5276V13.753H110.229V14.3736H108.568V14.8482H110.19V15.4324H108.568V15.9252H110.229V16.5276H107.823ZM119.612 16.5276V13.753H122.017V14.3736H120.357V14.8482H121.971V15.4324H120.357V15.9252H122.017V16.5276H119.612ZM110.322 16.5276L111.493 15.1574L110.294 13.753H111.223L111.937 14.6212L112.654 13.753H113.546L112.363 15.1403L113.536 16.5276H112.608L111.914 15.6731L111.238 16.5276H110.322ZM113.624 16.5281V13.7535H115.253C115.921 13.7535 116.311 14.1587 116.311 14.6867C116.311 15.3241 115.813 15.6519 115.157 15.6519H114.381V16.5281H113.624ZM115.198 14.3809H114.381V15.0198H115.196C115.411 15.0198 115.562 14.8856 115.562 14.7004C115.562 14.5033 115.41 14.3809 115.198 14.3809ZM116.632 16.5276V13.753H118.273C118.816 13.753 119.303 14.0693 119.303 14.6531C119.303 15.1523 118.893 15.4738 118.494 15.5054L119.465 16.5276H118.564L117.68 15.5419H117.369V16.5276H116.632ZM118.212 14.3736H117.369V14.9578H118.223C118.371 14.9578 118.561 14.85 118.561 14.6657C118.561 14.5224 118.414 14.3736 118.212 14.3736ZM122.359 16.5276V15.9252H123.834C124.052 15.9252 124.147 15.8142 124.147 15.6925C124.147 15.5758 124.053 15.4579 123.834 15.4579H123.167C122.588 15.4579 122.265 15.1257 122.265 14.6269C122.265 14.182 122.561 13.753 123.422 13.753H124.858L124.547 14.3773H123.305C123.068 14.3773 122.995 14.4945 122.995 14.6064C122.995 14.7214 123.085 14.8482 123.267 14.8482H123.965C124.611 14.8482 124.891 15.193 124.891 15.6446C124.891 16.13 124.579 16.5276 123.93 16.5276H122.359ZM124.957 16.5276V15.9252H126.432C126.65 15.9252 126.745 15.8142 126.745 15.6925C126.745 15.5758 126.651 15.4579 126.432 15.4579H125.765C125.186 15.4579 124.863 15.1257 124.863 14.6269C124.863 14.182 125.159 13.753 126.02 13.753H127.456L127.145 14.3773H125.903C125.666 14.3773 125.593 14.4945 125.593 14.6064C125.593 14.7214 125.683 14.8482 125.865 14.8482H126.563C127.209 14.8482 127.489 15.193 127.489 15.6446C127.489 16.13 127.177 16.5276 126.528 16.5276H124.957Z" fill="white"/>
<path d="M14.2066 17.0883H12.0762L13.4087 9.38789H15.5391L14.2066 17.0883Z" fill="#15195A"/>
<path d="M21.9319 9.57615C21.5116 9.42034 20.8451 9.24831 20.021 9.24831C17.9171 9.24831 16.4355 10.2968 16.4264 11.7959C16.409 12.9019 17.4872 13.5162 18.2936 13.8849C19.1179 14.2618 19.3981 14.5077 19.3981 14.8436C19.3897 15.3595 18.732 15.5973 18.1186 15.5973C17.268 15.5973 16.8123 15.4747 16.1197 15.1877L15.8391 15.0646L15.541 16.7932C16.0407 17.006 16.9613 17.1948 17.9171 17.203C20.1525 17.203 21.6079 16.1708 21.6251 14.5733C21.6336 13.6967 21.0643 13.025 19.8368 12.4761C19.0917 12.1238 18.6353 11.8862 18.6353 11.5257C18.644 11.198 19.0213 10.8623 19.8624 10.8623C20.555 10.8459 21.0639 11.0015 21.4494 11.1572L21.6421 11.239L21.9319 9.57615Z" fill="#15195A"/>
<path fill-rule="evenodd" clip-rule="evenodd" d="M25.7449 9.38789H27.3928L29.1116 17.0882H27.1389C27.1389 17.0882 26.9459 16.2034 26.8847 15.9331H24.1494C24.0703 16.1378 23.7022 17.0882 23.7022 17.0882H21.4668L24.6313 10.0268C24.8506 9.52704 25.2367 9.38789 25.7449 9.38789ZM25.6135 12.2058C25.6135 12.2058 24.9383 13.9179 24.7629 14.3603H26.5337C26.4461 13.9753 26.0427 12.1321 26.0427 12.1321L25.8938 11.4686C25.8311 11.6394 25.7404 11.8743 25.6792 12.0328C25.6378 12.1402 25.6099 12.2124 25.6135 12.2058Z" fill="#15195A"/>
<path fill-rule="evenodd" clip-rule="evenodd" d="M2.84561 9.38789H6.27334C6.73795 9.40412 7.11495 9.54337 7.23763 10.0352L7.98189 13.57C7.9823 13.5713 7.9827 13.5726 7.98311 13.5739L8.2111 14.6388L10.2975 9.38789H12.5503L9.20161 17.0801H6.94869L5.04986 10.3894C4.39459 10.0313 3.64672 9.74332 2.81055 9.54348L2.84561 9.38789Z" fill="#15195A"/>
</svg>
