<?xml version="1.0" encoding="utf-8"?>
<!-- Generator: Adobe Illustrator 16.0.0, SVG Export Plug-In . SVG Version: 6.00 Build 0)  -->
<!DOCTYPE svg PUBLIC "-//W3C//DTD SVG 1.1//EN" "http://www.w3.org/Graphics/SVG/1.1/DTD/svg11.dtd">
<svg version="1.1" id="Layer_1" xmlns="http://www.w3.org/2000/svg" xmlns:xlink="http://www.w3.org/1999/xlink" x="0px" y="0px"
	 width="32.625px" height="10.833px" viewBox="3.375 8.167 32.625 10.833" enable-background="new 3.375 8.167 32.625 10.833"
	 xml:space="preserve">
<path fill="#15195A" d="M17.315,18.518h-2.597l1.624-9.451h2.596L17.315,18.518z"/>
<path fill="#15195A" d="M26.729,9.298c-0.512-0.191-1.324-0.402-2.329-0.402c-2.563,0-4.37,1.287-4.381,3.127
	c-0.021,1.357,1.293,2.11,2.276,2.563c1.004,0.463,1.346,0.765,1.346,1.177c-0.011,0.634-0.813,0.925-1.56,0.925
	c-1.036,0-1.593-0.15-2.437-0.502l-0.342-0.152l-0.363,2.122c0.609,0.261,1.73,0.493,2.896,0.503c2.724,0,4.498-1.267,4.519-3.228
	c0.011-1.075-0.684-1.9-2.18-2.574c-0.908-0.432-1.464-0.724-1.464-1.167c0.01-0.402,0.471-0.814,1.495-0.814
	c0.845-0.02,1.464,0.171,1.935,0.362l0.234,0.101L26.729,9.298z"/>
<path fill="#15195A" d="M31.376,9.067h2.009l2.094,9.451h-2.403c0,0-0.235-1.086-0.31-1.418h-3.334
	c-0.097,0.252-0.545,1.418-0.545,1.418h-2.725l3.857-8.667C30.286,9.238,30.757,9.067,31.376,9.067z M31.216,12.525
	c0,0-0.823,2.102-1.036,2.645h2.158c-0.107-0.473-0.6-2.735-0.6-2.735l-0.181-0.814c-0.077,0.209-0.187,0.498-0.262,0.692
	C31.246,12.445,31.211,12.534,31.216,12.525z"/>
<path fill="#15195A" d="M10.008,15.512l2.543-6.445h2.746l-4.081,9.441H8.469l-2.314-8.211c-0.799-0.44-1.71-0.793-2.729-1.039
	l0.043-0.191h4.177c0.566,0.02,1.026,0.191,1.175,0.794l0.907,4.336c0,0.002,0.001,0.005,0.002,0.007L10.008,15.512z"/>
</svg>
